<?xml version="1.0" encoding="UTF-8"?>
<!DOCTYPE svg PUBLIC "-//W3C//DTD SVG 1.1//EN" "http://www.w3.org/Graphics/SVG/1.1/DTD/svg11.dtd">
<svg xmlns="http://www.w3.org/2000/svg" version="1.1" width="560px" height="561px" style="shape-rendering:geometricPrecision; text-rendering:geometricPrecision; image-rendering:optimizeQuality; fill-rule:evenodd; clip-rule:evenodd" xmlns:xlink="http://www.w3.org/1999/xlink">
<g><path style="opacity:1" fill="#1c3766" d="M 494.5,34.5 C 494.5,35.8333 494.5,37.1667 494.5,38.5C 498.852,38.925 502.685,40.5916 506,43.5C 506.333,45.1667 506.667,46.8333 507,48.5C 507.089,45.1514 508.256,44.6514 510.5,47C 517.621,54.4269 522.788,62.9269 526,72.5C 527.156,76.4183 527.656,80.4183 527.5,84.5C 527.5,87.1667 527.5,89.8333 527.5,92.5C 527.167,92.5 526.833,92.5 526.5,92.5C 484.499,92.3333 442.499,92.5 400.5,93C 382.441,100.285 375.941,113.452 381,132.5C 382.306,135.621 384.14,138.287 386.5,140.5C 389.852,145.677 394.518,149.177 400.5,151C 442.904,151.827 485.238,151.661 527.5,150.5C 527.5,151.167 527.5,151.833 527.5,152.5C 526.501,262.332 526.167,372.332 526.5,482.5C 524.353,487.466 522.853,492.799 522,498.5C 520.245,501.044 518.245,503.377 516,505.5C 514.054,509.211 512.221,512.877 510.5,516.5C 508.167,516.5 505.833,516.5 503.5,516.5C 503.5,517.833 503.5,519.167 503.5,520.5C 501.833,520.5 500.167,520.5 498.5,520.5C 498.64,522.124 497.973,523.29 496.5,524C 490.323,525.116 484.323,526.616 478.5,528.5C 345.504,526.502 212.171,525.835 78.5,526.5C 73.1667,525.833 67.8333,525.167 62.5,524.5C 62.6495,523.448 62.4828,522.448 62,521.5C 59.9324,519.438 57.4324,518.272 54.5,518C 53.1341,516.4 52.1341,514.567 51.5,512.5C 50.8076,513.025 50.3076,513.692 50,514.5C 44.6667,509.829 40.8334,504.162 38.5,497.5C 37.2342,496.638 35.9008,495.971 34.5,495.5C 34.3505,494.448 34.5172,493.448 35,492.5C 35.4186,493.672 36.0853,494.672 37,495.5C 36.2564,493.835 36.4231,492.169 37.5,490.5C 37.3333,489.833 37.1667,489.167 37,488.5C 36.5814,489.672 35.9147,490.672 35,491.5C 33.9605,483.869 33.2938,476.202 33,468.5C 32.3333,337.833 32.3333,207.167 33,76.5C 33.6667,73.8333 34.3333,71.1667 35,68.5C 36,67.8333 37,67.1667 38,66.5C 38.2414,63.7111 38.908,61.0444 40,58.5C 42.4748,56.2297 44.4748,53.563 46,50.5C 47.4413,49.13 49.108,48.13 51,47.5C 51.4828,46.552 51.6495,45.552 51.5,44.5C 53.604,44.7989 55.604,44.4656 57.5,43.5C 60.3604,40.8039 63.3604,38.3039 66.5,36C 70.4681,35.0582 74.4681,34.2249 78.5,33.5C 213.499,32.3333 348.499,32.1667 483.5,33C 486.958,34.4155 490.625,34.9155 494.5,34.5 Z"/></g>
<g><path style="opacity:1" fill="#1e2636" d="M 494.5,34.5 C 513.303,42.4092 524.803,56.4092 529,76.5C 529.5,209.833 529.667,343.166 529.5,476.5C 528.833,345.833 528.167,215.167 527.5,84.5C 527.656,80.4183 527.156,76.4183 526,72.5C 522.788,62.9269 517.621,54.4269 510.5,47C 508.256,44.6514 507.089,45.1514 507,48.5C 506.667,46.8333 506.333,45.1667 506,43.5C 502.685,40.5916 498.852,38.925 494.5,38.5C 494.5,37.1667 494.5,35.8333 494.5,34.5 Z"/></g>
<g><path style="opacity:1" fill="#1d283d" d="M 494.5,34.5 C 490.625,34.9155 486.958,34.4155 483.5,33C 348.499,32.1667 213.499,32.3333 78.5,33.5C 74.4681,34.2249 70.4681,35.0582 66.5,36C 63.3604,38.3039 60.3604,40.8039 57.5,43.5C 55.604,44.4656 53.604,44.7989 51.5,44.5C 51.6495,45.552 51.4828,46.552 51,47.5C 49.108,48.13 47.4413,49.13 46,50.5C 44.4748,53.563 42.4748,56.2297 40,58.5C 38.908,61.0444 38.2414,63.7111 38,66.5C 37,67.1667 36,67.8333 35,68.5C 34.3333,71.1667 33.6667,73.8333 33,76.5C 32.3333,207.167 32.3333,337.833 33,468.5C 33.2938,476.202 33.9605,483.869 35,491.5C 35.9147,490.672 36.5814,489.672 37,488.5C 37.1667,489.167 37.3333,489.833 37.5,490.5C 36.4231,492.169 36.2564,493.835 37,495.5C 36.0853,494.672 35.4186,493.672 35,492.5C 34.5172,493.448 34.3505,494.448 34.5,495.5C 32.7356,491.795 31.569,487.795 31,483.5C 30.3333,348.167 30.3333,212.833 31,77.5C 36.4101,52.4235 51.5767,36.9235 76.5,31C 212.167,30.3333 347.833,30.3333 483.5,31C 487.491,31.4985 491.158,32.6652 494.5,34.5 Z"/></g>
<g><path style="opacity:1" fill="#2e4f83" d="M 526.5,92.5 C 526.5,108.5 526.5,124.5 526.5,140.5C 483.349,139.846 440.349,140.513 397.5,142.5C 394.101,140.688 390.434,140.021 386.5,140.5C 384.14,138.287 382.306,135.621 381,132.5C 375.941,113.452 382.441,100.285 400.5,93C 442.499,92.5 484.499,92.3333 526.5,92.5 Z"/></g>
<g><path style="opacity:1" fill="#2e4e80" d="M 526.5,92.5 C 526.833,92.5 527.167,92.5 527.5,92.5C 527.5,111.833 527.5,131.167 527.5,150.5C 485.238,151.661 442.904,151.827 400.5,151C 394.518,149.177 389.852,145.677 386.5,140.5C 390.434,140.021 394.101,140.688 397.5,142.5C 440.349,140.513 483.349,139.846 526.5,140.5C 526.5,124.5 526.5,108.5 526.5,92.5 Z"/></g>
<g><path style="opacity:1" fill="#925969" d="M 302.5,142.5 C 290.5,142.5 278.5,142.5 266.5,142.5C 271.233,140.954 276.233,140.287 281.5,140.5C 288.714,140.472 295.714,141.139 302.5,142.5 Z"/></g>
<g><path style="opacity:1" fill="#b25b66" d="M 266.5,142.5 C 266.389,143.117 266.056,143.617 265.5,144C 262.854,144.497 260.187,144.664 257.5,144.5C 257.611,143.883 257.944,143.383 258.5,143C 261.146,142.503 263.813,142.336 266.5,142.5 Z"/></g>
<g><path style="opacity:1" fill="#614462" d="M 309.5,142.5 C 313.012,141.945 316.012,142.612 318.5,144.5C 314.988,145.055 311.988,144.388 309.5,142.5 Z"/></g>
<g><path style="opacity:1" fill="#9b5a67" d="M 254.5,144.5 C 253.082,146.308 251.082,146.975 248.5,146.5C 249.918,144.692 251.918,144.025 254.5,144.5 Z"/></g>
<g><path style="opacity:1" fill="#925a6f" d="M 318.5,144.5 C 320.553,144.402 322.22,145.069 323.5,146.5C 321.219,146.923 319.552,146.256 318.5,144.5 Z"/></g>
<g><path style="opacity:1" fill="#c45c60" d="M 247.5,146.5 C 245.223,149.133 242.223,150.466 238.5,150.5C 240.764,147.874 243.764,146.541 247.5,146.5 Z"/></g>
<g><path style="opacity:1" fill="#e55347" d="M 266.5,142.5 C 278.5,142.5 290.5,142.5 302.5,142.5C 304.833,142.5 307.167,142.5 309.5,142.5C 311.988,144.388 314.988,145.055 318.5,144.5C 319.552,146.256 321.219,146.923 323.5,146.5C 327.575,147.308 331.242,148.641 334.5,150.5C 335.007,151.859 336.007,152.859 337.5,153.5C 336.5,154.167 335.5,154.833 334.5,155.5C 335.934,156.23 337.1,157.23 338,158.5C 338.49,157.207 338.657,155.873 338.5,154.5C 341.932,154.757 345.266,155.424 348.5,156.5C 354.418,158.792 360.084,161.625 365.5,165C 366.337,166.011 366.67,167.178 366.5,168.5C 369.896,168.884 372.896,170.218 375.5,172.5C 375.5,173.833 375.5,175.167 375.5,176.5C 377.833,177.833 380.167,179.167 382.5,180.5C 383.833,180.5 384.5,181.167 384.5,182.5C 385.399,185.551 387.399,187.551 390.5,188.5C 391.778,188.782 392.778,189.449 393.5,190.5C 393.87,193.267 395.204,195.267 397.5,196.5C 398.434,197.568 398.768,198.901 398.5,200.5C 399.675,200.281 400.675,200.614 401.5,201.5C 404.777,206.398 407.777,211.398 410.5,216.5C 412.092,223.014 414.758,229.014 418.5,234.5C 418.875,236.698 419.542,238.698 420.5,240.5C 420.271,244.917 421.271,248.917 423.5,252.5C 423.505,256.534 423.838,260.534 424.5,264.5C 424.5,276.5 424.5,288.5 424.5,300.5C 424.476,305.923 423.81,311.257 422.5,316.5C 420.926,318.102 420.259,320.102 420.5,322.5C 418.926,324.102 418.259,326.102 418.5,328.5C 416.545,333.089 414.545,337.755 412.5,342.5C 411.833,343.167 411.167,343.833 410.5,344.5C 404.335,345.75 398.002,346.417 391.5,346.5C 381.722,346.597 372.055,345.93 362.5,344.5C 362.082,343.778 361.416,343.278 360.5,343C 364.233,341.365 368.067,341.198 372,342.5C 375.235,342.418 378.402,341.918 381.5,341C 377.216,339.337 372.883,339.004 368.5,340C 367.027,339.29 366.36,338.124 366.5,336.5C 368.766,336.141 370.599,336.808 372,338.5C 373.343,334.639 374.843,334.639 376.5,338.5C 378.416,337.752 380.416,337.752 382.5,338.5C 382.5,337.167 382.5,335.833 382.5,334.5C 377.125,334.828 371.792,334.495 366.5,333.5C 365.798,331.224 365.965,328.891 367,326.5C 370.915,328.289 373.248,326.956 374,322.5C 374.75,323.126 375.584,323.626 376.5,324C 374.984,326.362 373.65,328.862 372.5,331.5C 376.105,333.218 377.105,332.385 375.5,329C 375.783,325.19 377.116,324.69 379.5,327.5C 380.478,327.023 381.311,326.357 382,325.5C 382.333,325.833 382.667,326.167 383,326.5C 382.737,325.049 382.904,323.716 383.5,322.5C 384.891,323.645 386.224,323.645 387.5,322.5C 385.96,322.306 384.294,321.473 382.5,320C 385.167,319.333 385.167,318.667 382.5,318C 383.167,317.667 383.833,317.333 384.5,317C 383.333,316.5 382.5,315.667 382,314.5C 381.333,317.167 380.667,317.167 380,314.5C 379.192,312.421 379.359,310.421 380.5,308.5C 381.251,309.376 381.751,310.376 382,311.5C 382.75,310.874 383.584,310.374 384.5,310C 383.167,309.333 383.167,308.667 384.5,308C 381.711,306.095 379.044,306.262 376.5,308.5C 375.833,308.167 375.167,307.833 374.5,307.5C 376.971,305.929 379.637,304.929 382.5,304.5C 382.657,303.127 382.49,301.793 382,300.5C 379.049,302.076 375.883,302.743 372.5,302.5C 372.768,305.119 372.435,307.619 371.5,310C 368.824,310.617 368.157,309.784 369.5,307.5C 369,307.167 368.5,306.833 368,306.5C 366.211,307.409 364.377,307.576 362.5,307C 364.972,305.54 367.639,304.54 370.5,304C 371.641,303.259 371.641,302.425 370.5,301.5C 373.121,299.128 372.788,298.462 369.5,299.5C 368.522,299.023 367.689,298.357 367,297.5C 366.751,298.624 366.251,299.624 365.5,300.5C 365.167,299.833 364.833,299.167 364.5,298.5C 365.167,297.167 365.833,295.833 366.5,294.5C 365.577,293.164 365.077,291.83 365,290.5C 366,290.5 367,290.5 368,290.5C 369.51,292.208 371.01,293.874 372.5,295.5C 373.086,295.291 373.586,294.957 374,294.5C 376.091,302.294 377.758,302.294 379,294.5C 380,293.167 381,293.167 382,294.5C 381.464,292.553 381.798,290.553 383,288.5C 383.556,290.595 384.056,290.762 384.5,289C 383.491,287.832 382.491,286.665 381.5,285.5C 382.681,283.802 382.681,282.135 381.5,280.5C 380.544,281.888 379.544,283.221 378.5,284.5C 378.203,282.57 376.87,280.904 374.5,279.5C 378.324,278.103 381.991,278.436 385.5,280.5C 386.386,279.675 386.719,278.675 386.5,277.5C 383.739,278.085 382.073,277.085 381.5,274.5C 380.745,268.412 380.745,262.412 381.5,256.5C 381.137,259.748 379.471,261.914 376.5,263C 377.576,264.726 377.743,266.559 377,268.5C 373.852,262.713 375.018,257.713 380.5,253.5C 379.248,251.999 378.248,250.332 377.5,248.5C 376.92,251.447 375.92,254.114 374.5,256.5C 374.5,255.167 374.5,253.833 374.5,252.5C 375.555,232.994 366.222,223.661 346.5,224.5C 350.084,222.882 354.084,221.882 358.5,221.5C 356.082,220.585 354.082,219.085 352.5,217C 354.874,213.791 356.541,214.291 357.5,218.5C 358.386,217.675 358.719,216.675 358.5,215.5C 362.917,216.14 366.583,214.806 369.5,211.5C 369.333,211.167 369.167,210.833 369,210.5C 367.416,211.861 365.582,212.528 363.5,212.5C 363.299,209.272 363.633,206.105 364.5,203C 363.278,200.966 362.278,198.8 361.5,196.5C 360.262,200.311 359.596,200.311 359.5,196.5C 358.5,196.5 357.5,196.5 356.5,196.5C 356.702,198.989 356.202,201.323 355,203.5C 353.591,200.05 351.091,198.55 347.5,199C 349.099,200.066 350.099,201.566 350.5,203.5C 353.086,204.48 355.753,204.813 358.5,204.5C 358.5,203.5 358.5,202.5 358.5,201.5C 359.833,201.5 361.167,201.5 362.5,201.5C 362.646,203.942 361.813,204.609 360,203.5C 359.667,206.5 359.333,209.5 359,212.5C 358.505,210.527 358.338,208.527 358.5,206.5C 353.87,206.692 349.37,206.025 345,204.5C 342.241,205.398 339.575,205.731 337,205.5C 334.179,203.214 333.013,200.214 333.5,196.5C 330.761,196.293 328.427,195.293 326.5,193.5C 322.88,193.954 320.713,195.954 320,199.5C 319.598,198.128 319.098,196.795 318.5,195.5C 320.359,193.808 322.359,192.308 324.5,191C 322.779,189.473 320.779,188.473 318.5,188C 321.207,186.136 322.041,183.636 321,180.5C 319.243,183.014 317.743,185.681 316.5,188.5C 315.026,185.677 314.692,182.844 315.5,180C 313.567,179.749 311.734,179.249 310,178.5C 309.833,178.833 309.667,179.167 309.5,179.5C 310.689,180.429 312.022,180.762 313.5,180.5C 313.142,184.509 312.642,188.509 312,192.5C 311.5,193 311,193.5 310.5,194C 312.367,194.919 314.367,195.419 316.5,195.5C 313,196.857 309.667,196.524 306.5,194.5C 309.824,193.841 311.157,191.841 310.5,188.5C 309.5,188.5 308.5,188.5 307.5,188.5C 306.996,192.335 305.996,192.335 304.5,188.5C 303.719,189.729 303.219,191.062 303,192.5C 299.89,193.673 299.723,193.173 302.5,191C 301.5,190 300.5,189 299.5,188C 300.449,187.383 301.282,187.549 302,188.5C 302.676,183.129 302.509,177.796 301.5,172.5C 300.5,172.5 299.5,172.5 298.5,172.5C 297.882,175.398 296.715,178.065 295,180.5C 294.289,178.101 294.456,175.768 295.5,173.5C 294.5,172.5 293.5,171.5 292.5,170.5C 291.483,173.028 290.316,173.028 289,170.5C 288.667,170.833 288.333,171.167 288,171.5C 287.667,169.833 287.333,168.167 287,166.5C 286.503,168.81 286.337,171.143 286.5,173.5C 285.5,173.5 284.5,173.5 283.5,173.5C 283.703,175.39 283.037,176.89 281.5,178C 279.616,178.216 277.949,178.883 276.5,180C 277.167,180.333 277.833,180.667 278.5,181C 276.527,181.495 274.527,181.662 272.5,181.5C 272.762,182.978 272.429,184.311 271.5,185.5C 270.526,183.257 270.192,180.924 270.5,178.5C 279.757,177.734 279.757,176.401 270.5,174.5C 273.131,172.995 272.797,172.329 269.5,172.5C 269.777,169.552 269.444,166.719 268.5,164C 271.167,163 271.167,162 268.5,161C 269.167,160.667 269.833,160.333 270.5,160C 269.09,159.632 268.09,158.799 267.5,157.5C 265.257,156.526 262.924,156.192 260.5,156.5C 260.649,157.552 260.483,158.552 260,159.5C 258.266,160.249 256.433,160.749 254.5,161C 253.074,163.711 253.408,166.211 255.5,168.5C 257.925,169.308 260.258,170.308 262.5,171.5C 261.593,174.421 261.26,177.421 261.5,180.5C 260.5,180.5 259.5,180.5 258.5,180.5C 258.813,177.753 258.48,175.086 257.5,172.5C 256.342,176.797 255.342,181.131 254.5,185.5C 254.135,190.108 255.469,191.108 258.5,188.5C 259.5,188.833 260.167,189.5 260.5,190.5C 258.132,191.872 256.466,193.872 255.5,196.5C 251.215,195.294 246.882,194.294 242.5,193.5C 240.381,193.598 238.714,194.431 237.5,196C 238.127,198.343 239.127,200.51 240.5,202.5C 241.5,201.167 242.5,199.833 243.5,198.5C 245.483,200.81 246.483,203.477 246.5,206.5C 243.62,205.358 240.62,204.358 237.5,203.5C 236.167,203.833 234.833,204.167 233.5,204.5C 231.249,208.563 229.915,213.063 229.5,218C 229.667,218.833 229.833,219.667 230,220.5C 230.284,218.114 231.284,217.448 233,218.5C 234.495,216.89 234.661,215.224 233.5,213.5C 236.295,212.752 236.962,211.252 235.5,209C 237.733,206.014 240.066,205.848 242.5,208.5C 240.454,209.871 238.621,211.538 237,213.5C 236.365,215.635 236.699,217.635 238,219.5C 238.95,216.108 241.117,214.941 244.5,216C 242.939,216.941 241.605,218.108 240.5,219.5C 241.689,220.429 243.022,220.762 244.5,220.5C 244.227,222.958 245.227,224.625 247.5,225.5C 248.167,223.833 248.833,222.167 249.5,220.5C 250.662,225.131 250.828,229.798 250,234.5C 249.311,233.643 248.478,232.977 247.5,232.5C 243.883,240.639 243.549,248.973 246.5,257.5C 245.37,261.163 245.203,264.83 246,268.5C 242.705,270.788 242.205,273.288 244.5,276C 243.5,276.167 242.5,276.333 241.5,276.5C 239.162,275.663 236.828,274.83 234.5,274C 235.833,273.667 237.167,273.333 238.5,273C 236.167,272.667 233.833,272.333 231.5,272C 230.944,271.617 230.611,271.117 230.5,270.5C 233.572,270.817 236.572,270.484 239.5,269.5C 240.127,268.583 240.461,267.583 240.5,266.5C 241.661,252.673 241.827,238.673 241,224.5C 239.82,223.316 238.32,222.649 236.5,222.5C 232.916,223.716 229.249,224.383 225.5,224.5C 218.213,223.555 211.547,224.888 205.5,228.5C 199.186,229.983 196.019,233.983 196,240.5C 193.295,243.976 192.128,247.976 192.5,252.5C 193.5,252.5 194.5,252.5 195.5,252.5C 195.5,253.833 195.5,255.167 195.5,256.5C 194.5,256.5 193.5,256.5 192.5,256.5C 192.238,257.978 192.571,259.311 193.5,260.5C 195.299,262.615 196.966,264.782 198.5,267C 198.167,267.333 197.833,267.667 197.5,268C 205.272,272.1 213.605,273.6 222.5,272.5C 224.196,272.685 225.529,273.519 226.5,275C 225.671,276.816 224.837,278.649 224,280.5C 223.333,277.833 222.667,277.833 222,280.5C 220.731,279.095 220.231,277.429 220.5,275.5C 216.896,277.092 213.062,278.426 209,279.5C 208.257,277.355 207.424,277.189 206.5,279C 206.89,281.459 208.224,283.126 210.5,284C 208.233,285.081 208.066,286.581 210,288.5C 211.011,289.337 212.178,289.67 213.5,289.5C 213.281,288.325 213.614,287.325 214.5,286.5C 216.047,287.768 217.047,289.435 217.5,291.5C 214.572,292.484 211.572,292.817 208.5,292.5C 208.628,290.345 208.128,288.345 207,286.5C 206.667,287.5 206.333,288.5 206,289.5C 205.798,287.744 205.298,286.078 204.5,284.5C 203.355,286.635 203.355,288.801 204.5,291C 201.786,292.867 200.119,295.367 199.5,298.5C 193.936,299.767 192.936,302.267 196.5,306C 201.159,306.413 205.159,307.413 208.5,309C 208.167,309.333 207.833,309.667 207.5,310C 209.256,310.202 210.922,310.702 212.5,311.5C 212.291,312.086 211.957,312.586 211.5,313C 216.711,313.459 221.378,315.126 225.5,318C 229.269,318.199 232.936,317.865 236.5,317C 237.167,317.333 237.833,317.667 238.5,318C 236.744,318.202 235.078,318.702 233.5,319.5C 234.376,320.251 235.376,320.751 236.5,321C 235.944,321.383 235.611,321.883 235.5,322.5C 223.605,318.724 211.605,315.224 199.5,312C 189.778,307.445 179.778,303.445 169.5,300C 166.927,299.218 164.927,297.718 163.5,295.5C 159.538,294.123 155.872,292.456 152.5,290.5C 153.147,289.726 153.48,288.726 153.5,287.5C 150.767,274.663 149.767,261.663 150.5,248.5C 150.5,247.167 150.5,245.833 150.5,244.5C 152.223,242.22 152.889,239.553 152.5,236.5C 153.167,235.167 153.833,233.833 154.5,232.5C 156.074,230.898 156.741,228.898 156.5,226.5C 158.257,225.708 159.591,224.375 160.5,222.5C 161.843,219.15 163.177,215.817 164.5,212.5C 165.303,209.332 166.636,206.332 168.5,203.5C 171.436,200.543 174.103,197.543 176.5,194.5C 178.282,193.28 180.282,192.614 182.5,192.5C 182.343,191.127 182.51,189.793 183,188.5C 184.821,186.854 185.987,184.854 186.5,182.5C 187.222,181.449 188.222,180.782 189.5,180.5C 191.997,178.836 194.663,177.503 197.5,176.5C 197.5,175.167 197.5,173.833 197.5,172.5C 197.833,172.5 198.167,172.5 198.5,172.5C 202.093,171.663 204.76,169.663 206.5,166.5C 211.762,163.182 217.095,159.849 222.5,156.5C 226.052,156.688 228.719,155.355 230.5,152.5C 232.882,150.954 235.549,150.287 238.5,150.5C 242.223,150.466 245.223,149.133 247.5,146.5C 247.833,146.5 248.167,146.5 248.5,146.5C 251.082,146.975 253.082,146.308 254.5,144.5C 255.5,144.5 256.5,144.5 257.5,144.5C 260.187,144.664 262.854,144.497 265.5,144C 266.056,143.617 266.389,143.117 266.5,142.5 Z"/></g>
<g><path style="opacity:1" fill="#cf5a58" d="M 334.5,150.5 C 337.62,151.86 340.953,152.693 344.5,153C 346.093,153.949 347.426,155.115 348.5,156.5C 345.266,155.424 341.932,154.757 338.5,154.5C 338.657,155.873 338.49,157.207 338,158.5C 337.1,157.23 335.934,156.23 334.5,155.5C 335.5,154.833 336.5,154.167 337.5,153.5C 336.007,152.859 335.007,151.859 334.5,150.5 Z"/></g>
<g><path style="opacity:1" fill="#b45b66" d="M 230.5,152.5 C 228.719,155.355 226.052,156.688 222.5,156.5C 224.527,154.153 227.194,152.819 230.5,152.5 Z"/></g>
<g><path style="opacity:1" fill="#384b6b" d="M 527.5,84.5 C 528.167,215.167 528.833,345.833 529.5,476.5C 529.806,479.385 529.473,482.052 528.5,484.5C 527.508,373.855 527.175,263.188 527.5,152.5C 527.5,151.833 527.5,151.167 527.5,150.5C 527.5,131.167 527.5,111.833 527.5,92.5C 527.5,89.8333 527.5,87.1667 527.5,84.5 Z"/></g>
<g><path style="opacity:1" fill="#c65c62" d="M 206.5,166.5 C 204.76,169.663 202.093,171.663 198.5,172.5C 200.267,169.321 202.934,167.321 206.5,166.5 Z"/></g>
<g><path style="opacity:1" fill="#b55d62" d="M 375.5,172.5 C 378.543,174.543 380.876,177.21 382.5,180.5C 380.167,179.167 377.833,177.833 375.5,176.5C 375.5,175.167 375.5,173.833 375.5,172.5 Z"/></g>
<g><path style="opacity:1" fill="#bf5c5e" d="M 197.5,172.5 C 197.5,173.833 197.5,175.167 197.5,176.5C 194.663,177.503 191.997,178.836 189.5,180.5C 189.539,179.417 189.873,178.417 190.5,177.5C 192.879,175.771 195.212,174.104 197.5,172.5 Z"/></g>
<g><path style="opacity:1" fill="#af5e68" d="M 384.5,182.5 C 387.601,183.449 389.601,185.449 390.5,188.5C 387.399,187.551 385.399,185.551 384.5,182.5 Z"/></g>
<g><path style="opacity:1" fill="#cb595a" d="M 186.5,182.5 C 185.987,184.854 184.821,186.854 183,188.5C 182.51,189.793 182.343,191.127 182.5,192.5C 180.282,192.614 178.282,193.28 176.5,194.5C 176.539,193.417 176.873,192.417 177.5,191.5C 180.303,188.154 183.303,185.154 186.5,182.5 Z"/></g>
<g><path style="opacity:1" fill="#794a5e" d="M 393.5,190.5 C 394.778,190.782 395.778,191.449 396.5,192.5C 396.833,193.833 397.167,195.167 397.5,196.5C 395.204,195.267 393.87,193.267 393.5,190.5 Z"/></g>
<g><path style="opacity:1" fill="#3a395c" d="M 396.5,192.5 C 399.161,193.159 401.494,194.492 403.5,196.5C 404.681,198.135 404.681,199.802 403.5,201.5C 406.956,206.078 409.622,211.078 411.5,216.5C 411.167,216.5 410.833,216.5 410.5,216.5C 407.777,211.398 404.777,206.398 401.5,201.5C 400.675,200.614 399.675,200.281 398.5,200.5C 398.768,198.901 398.434,197.568 397.5,196.5C 397.167,195.167 396.833,193.833 396.5,192.5 Z"/></g>
<g><path style="opacity:1" fill="#303446" d="M 146.5,216.5 C 146.33,215.178 146.663,214.011 147.5,213C 143.514,212.501 139.514,212.334 135.5,212.5C 135.611,211.883 135.944,211.383 136.5,211C 140.486,210.501 144.486,210.334 148.5,210.5C 148.741,212.898 148.074,214.898 146.5,216.5 Z"/></g>
<g><path style="opacity:1" fill="#353543" d="M 126.5,212.5 C 126.5,213.167 126.5,213.833 126.5,214.5C 123.833,214.5 121.167,214.5 118.5,214.5C 117.833,214.5 117.167,214.5 116.5,214.5C 119.337,212.598 122.671,211.931 126.5,212.5 Z"/></g>
<g><path style="opacity:1" fill="#c8915a" d="M 126.5,212.5 C 129.5,212.5 132.5,212.5 135.5,212.5C 139.514,212.334 143.514,212.501 147.5,213C 146.663,214.011 146.33,215.178 146.5,216.5C 145.833,216.5 145.167,216.5 144.5,216.5C 138.926,214.547 132.926,213.88 126.5,214.5C 126.5,213.833 126.5,213.167 126.5,212.5 Z"/></g>
<g><path style="opacity:1" fill="#745639" d="M 110.5,214.5 C 112.5,214.5 114.5,214.5 116.5,214.5C 117.167,214.5 117.833,214.5 118.5,214.5C 116.095,215.768 113.428,216.435 110.5,216.5C 110.5,215.833 110.5,215.167 110.5,214.5 Z"/></g>
<g><path style="opacity:1" fill="#2a3551" d="M 110.5,214.5 C 110.5,215.167 110.5,215.833 110.5,216.5C 104.05,217.429 97.7167,218.762 91.5,220.5C 90.5,220.5 89.5,220.5 88.5,220.5C 88.5,219.167 88.5,217.833 88.5,216.5C 95.9296,216.654 103.263,215.987 110.5,214.5 Z"/></g>
<g><path style="opacity:1" fill="#a45762" d="M 410.5,216.5 C 410.833,216.5 411.167,216.5 411.5,216.5C 414.404,222.303 416.738,228.303 418.5,234.5C 414.758,229.014 412.092,223.014 410.5,216.5 Z"/></g>
<g><path style="opacity:1" fill="#957353" d="M 88.5,220.5 C 89.5,220.5 90.5,220.5 91.5,220.5C 90.3646,222.213 88.698,222.88 86.5,222.5C 86.8333,221.5 87.5,220.833 88.5,220.5 Z"/></g>
<g><path style="opacity:1" fill="#c48443" d="M 142.5,220.5 C 140.365,222.369 137.698,223.036 134.5,222.5C 136.635,220.631 139.302,219.964 142.5,220.5 Z"/></g>
<g><path style="opacity:1" fill="#c15c5d" d="M 164.5,212.5 C 163.177,215.817 161.843,219.15 160.5,222.5C 159.591,224.375 158.257,225.708 156.5,226.5C 158.186,221.11 160.853,216.443 164.5,212.5 Z"/></g>
<g><path style="opacity:1" fill="#5f4136" d="M 134.5,222.5 C 133.817,224.176 132.483,224.843 130.5,224.5C 131.183,222.824 132.517,222.157 134.5,222.5 Z"/></g>
<g><path style="opacity:1" fill="#c88d57" d="M 85.5,222.5 C 83.9726,225.068 81.6393,226.401 78.5,226.5C 80.2604,224.441 82.5938,223.108 85.5,222.5 Z"/></g>
<g><path style="opacity:1" fill="#cf8f50" d="M 77.5,226.5 C 76.7659,227.708 76.4326,229.041 76.5,230.5C 74.8333,230.5 73.1667,230.5 71.5,230.5C 73.0337,228.631 75.0337,227.298 77.5,226.5 Z"/></g>
<g><path style="opacity:1" fill="#393644" d="M 123.5,226.5 C 123.279,227.735 122.612,228.735 121.5,229.5C 118.748,231.336 115.748,232.336 112.5,232.5C 115.345,228.996 119.012,226.996 123.5,226.5 Z"/></g>
<g><path style="opacity:1" fill="#8f5263" d="M 156.5,226.5 C 156.741,228.898 156.074,230.898 154.5,232.5C 154.259,230.102 154.926,228.102 156.5,226.5 Z"/></g>
<g><path style="opacity:1" fill="#f49232" d="M 118.5,214.5 C 121.167,214.5 123.833,214.5 126.5,214.5C 132.926,213.88 138.926,214.547 144.5,216.5C 144.34,218.153 143.674,219.486 142.5,220.5C 139.302,219.964 136.635,220.631 134.5,222.5C 132.517,222.157 131.183,222.824 130.5,224.5C 128.071,224.884 125.737,225.551 123.5,226.5C 119.012,226.996 115.345,228.996 112.5,232.5C 110.5,233.833 108.5,235.167 106.5,236.5C 105.5,237.833 104.5,239.167 103.5,240.5C 102.604,246.116 102.437,251.783 103,257.5C 103.324,259.569 104.158,259.902 105.5,258.5C 108.309,261.992 111.643,264.659 115.5,266.5C 115.5,267.833 116.167,268.5 117.5,268.5C 121.206,271.681 125.206,274.347 129.5,276.5C 131.443,279.471 134.109,281.471 137.5,282.5C 138.82,283.942 140.486,284.608 142.5,284.5C 142.5,285.833 143.167,286.5 144.5,286.5C 146.5,287.833 148.5,289.167 150.5,290.5C 150.714,294.257 149.714,294.924 147.5,292.5C 145.087,299.176 147.421,302.843 154.5,303.5C 156.005,304.842 156.672,306.508 156.5,308.5C 154.334,308.421 152.334,307.754 150.5,306.5C 147.972,307.169 147.972,308.002 150.5,309C 150.167,309.333 149.833,309.667 149.5,310C 152.956,309.907 155.956,310.907 158.5,313C 156.956,314.187 155.289,314.52 153.5,314C 153.833,313.667 154.167,313.333 154.5,313C 152.527,312.505 150.527,312.338 148.5,312.5C 147.5,312.5 146.5,312.5 145.5,312.5C 145.53,311.503 145.03,310.836 144,310.5C 140.609,309.55 137.442,308.217 134.5,306.5C 132.62,306.771 131.287,306.104 130.5,304.5C 129.817,302.824 128.483,302.157 126.5,302.5C 126.167,302.5 125.833,302.5 125.5,302.5C 123.413,298.412 120.08,296.412 115.5,296.5C 114.817,294.824 113.483,294.157 111.5,294.5C 101.813,289.001 92.48,282.834 83.5,276C 78.5554,272.229 74.5554,267.729 71.5,262.5C 70.8046,259.085 69.1379,256.418 66.5,254.5C 65.7784,254.082 65.2784,253.416 65,252.5C 64.1705,247.136 64.3372,241.802 65.5,236.5C 66.8549,233.812 68.8549,231.812 71.5,230.5C 73.1667,230.5 74.8333,230.5 76.5,230.5C 76.4326,229.041 76.7659,227.708 77.5,226.5C 77.8333,226.5 78.1667,226.5 78.5,226.5C 81.6393,226.401 83.9726,225.068 85.5,222.5C 85.8333,222.5 86.1667,222.5 86.5,222.5C 88.698,222.88 90.3646,222.213 91.5,220.5C 97.7167,218.762 104.05,217.429 110.5,216.5C 113.428,216.435 116.095,215.768 118.5,214.5 Z"/></g>
<g><path style="opacity:1" fill="#faf2f0" d="M 225.5,224.5 C 227.089,226.306 229.089,227.639 231.5,228.5C 233.583,224.258 236.417,223.592 240,226.5C 240.5,239.829 240.667,253.163 240.5,266.5C 236.578,269.65 233.578,268.983 231.5,264.5C 226.055,268.033 220.055,269.366 213.5,268.5C 207.948,265.621 203.282,261.621 199.5,256.5C 196.556,245.951 198.556,236.617 205.5,228.5C 211.547,224.888 218.213,223.555 225.5,224.5 Z"/></g>
<g><path style="opacity:1" fill="#e35146" d="M 214.5,232.5 C 219.101,232.055 223.435,232.722 227.5,234.5C 227.5,236.5 227.5,238.5 227.5,240.5C 229.124,240.36 230.29,241.027 231,242.5C 231.498,245.817 231.665,249.15 231.5,252.5C 228.833,253.833 226.833,255.833 225.5,258.5C 225.389,259.117 225.056,259.617 224.5,260C 217.874,261.731 212.207,260.231 207.5,255.5C 206.652,253.591 206.318,251.591 206.5,249.5C 206.336,246.813 206.503,244.146 207,241.5C 209.682,238.652 212.182,235.652 214.5,232.5 Z"/></g>
<g><path style="opacity:1" fill="#ac4e49" d="M 214.5,232.5 C 212.182,235.652 209.682,238.652 207,241.5C 206.503,244.146 206.336,246.813 206.5,249.5C 204.442,241.822 207.109,236.155 214.5,232.5 Z"/></g>
<g><path style="opacity:1" fill="#ca615a" d="M 227.5,234.5 C 229.708,235.894 231.208,237.894 232,240.5C 232.812,244.689 232.645,248.689 231.5,252.5C 231.665,249.15 231.498,245.817 231,242.5C 230.29,241.027 229.124,240.36 227.5,240.5C 227.5,238.5 227.5,236.5 227.5,234.5 Z"/></g>
<g><path style="opacity:1" fill="#7c4052" d="M 152.5,236.5 C 152.889,239.553 152.223,242.22 150.5,244.5C 150.565,241.572 151.232,238.905 152.5,236.5 Z"/></g>
<g><path style="opacity:1" fill="#ca4b4a" d="M 240.5,266.5 C 240.667,253.163 240.5,239.829 240,226.5C 236.417,223.592 233.583,224.258 231.5,228.5C 229.089,227.639 227.089,226.306 225.5,224.5C 229.249,224.383 232.916,223.716 236.5,222.5C 238.32,222.649 239.82,223.316 241,224.5C 241.827,238.673 241.661,252.673 240.5,266.5 Z"/></g>
<g><path style="opacity:1" fill="#614633" d="M 106.5,236.5 C 105.018,241.015 104.352,245.681 104.5,250.5C 103.521,247.375 103.187,244.042 103.5,240.5C 104.5,239.167 105.5,237.833 106.5,236.5 Z"/></g>
<g><path style="opacity:1" fill="#ab5863" d="M 420.5,240.5 C 422.615,244.112 423.615,248.112 423.5,252.5C 421.271,248.917 420.271,244.917 420.5,240.5 Z"/></g>
<g><path style="opacity:1" fill="#c08853" d="M 66.5,254.5 C 69.1379,256.418 70.8046,259.085 71.5,262.5C 68.8621,260.582 67.1954,257.915 66.5,254.5 Z"/></g>
<g><path style="opacity:1" fill="#e19449" d="M 103.5,240.5 C 103.187,244.042 103.521,247.375 104.5,250.5C 106.97,256.64 110.636,261.973 115.5,266.5C 111.643,264.659 108.309,261.992 105.5,258.5C 104.158,259.902 103.324,259.569 103,257.5C 102.437,251.783 102.604,246.116 103.5,240.5 Z"/></g>
<g><path style="opacity:1" fill="#e95448" d="M 346.5,224.5 C 345.395,225.6 344.062,226.267 342.5,226.5C 340.184,224.94 337.684,223.606 335,222.5C 332.239,222.685 330.239,224.018 329,226.5C 328.658,242.505 328.158,258.505 327.5,274.5C 327.568,278.531 327.901,282.531 328.5,286.5C 328.081,287.672 327.415,288.672 326.5,289.5C 328.226,291.03 330.226,292.03 332.5,292.5C 334.803,291.471 337.136,291.471 339.5,292.5C 340.034,284.501 340.7,276.501 341.5,268.5C 343.49,270.251 345.823,271.251 348.5,271.5C 352.847,270.953 357.181,270.286 361.5,269.5C 362.993,268.859 363.993,267.859 364.5,266.5C 369.186,264.48 372.52,261.147 374.5,256.5C 375.92,254.114 376.92,251.447 377.5,248.5C 378.248,250.332 379.248,251.999 380.5,253.5C 375.018,257.713 373.852,262.713 377,268.5C 377.743,266.559 377.576,264.726 376.5,263C 379.471,261.914 381.137,259.748 381.5,256.5C 380.745,262.412 380.745,268.412 381.5,274.5C 382.073,277.085 383.739,278.085 386.5,277.5C 386.719,278.675 386.386,279.675 385.5,280.5C 381.991,278.436 378.324,278.103 374.5,279.5C 376.87,280.904 378.203,282.57 378.5,284.5C 379.544,283.221 380.544,281.888 381.5,280.5C 382.681,282.135 382.681,283.802 381.5,285.5C 382.491,286.665 383.491,287.832 384.5,289C 384.056,290.762 383.556,290.595 383,288.5C 381.798,290.553 381.464,292.553 382,294.5C 381,293.167 380,293.167 379,294.5C 377.758,302.294 376.091,302.294 374,294.5C 373.586,294.957 373.086,295.291 372.5,295.5C 371.01,293.874 369.51,292.208 368,290.5C 367,290.5 366,290.5 365,290.5C 365.077,291.83 365.577,293.164 366.5,294.5C 365.833,295.833 365.167,297.167 364.5,298.5C 364.833,299.167 365.167,299.833 365.5,300.5C 366.251,299.624 366.751,298.624 367,297.5C 367.689,298.357 368.522,299.023 369.5,299.5C 372.788,298.462 373.121,299.128 370.5,301.5C 371.641,302.425 371.641,303.259 370.5,304C 367.639,304.54 364.972,305.54 362.5,307C 364.377,307.576 366.211,307.409 368,306.5C 368.5,306.833 369,307.167 369.5,307.5C 368.157,309.784 368.824,310.617 371.5,310C 372.435,307.619 372.768,305.119 372.5,302.5C 375.883,302.743 379.049,302.076 382,300.5C 382.49,301.793 382.657,303.127 382.5,304.5C 379.637,304.929 376.971,305.929 374.5,307.5C 375.167,307.833 375.833,308.167 376.5,308.5C 379.044,306.262 381.711,306.095 384.5,308C 383.167,308.667 383.167,309.333 384.5,310C 383.584,310.374 382.75,310.874 382,311.5C 381.751,310.376 381.251,309.376 380.5,308.5C 379.359,310.421 379.192,312.421 380,314.5C 380.667,317.167 381.333,317.167 382,314.5C 382.5,315.667 383.333,316.5 384.5,317C 383.833,317.333 383.167,317.667 382.5,318C 385.167,318.667 385.167,319.333 382.5,320C 384.294,321.473 385.96,322.306 387.5,322.5C 386.224,323.645 384.891,323.645 383.5,322.5C 382.904,323.716 382.737,325.049 383,326.5C 382.667,326.167 382.333,325.833 382,325.5C 381.311,326.357 380.478,327.023 379.5,327.5C 377.116,324.69 375.783,325.19 375.5,329C 377.105,332.385 376.105,333.218 372.5,331.5C 373.65,328.862 374.984,326.362 376.5,324C 375.584,323.626 374.75,323.126 374,322.5C 373.248,326.956 370.915,328.289 367,326.5C 365.965,328.891 365.798,331.224 366.5,333.5C 371.792,334.495 377.125,334.828 382.5,334.5C 382.5,335.833 382.5,337.167 382.5,338.5C 380.416,337.752 378.416,337.752 376.5,338.5C 374.843,334.639 373.343,334.639 372,338.5C 370.599,336.808 368.766,336.141 366.5,336.5C 366.36,338.124 367.027,339.29 368.5,340C 372.883,339.004 377.216,339.337 381.5,341C 378.402,341.918 375.235,342.418 372,342.5C 368.067,341.198 364.233,341.365 360.5,343C 361.416,343.278 362.082,343.778 362.5,344.5C 350.337,344.626 338.337,343.959 326.5,342.5C 315.161,341.166 303.827,339.666 292.5,338C 273.412,333.043 254.412,327.876 235.5,322.5C 235.611,321.883 235.944,321.383 236.5,321C 235.376,320.751 234.376,320.251 233.5,319.5C 235.078,318.702 236.744,318.202 238.5,318C 237.833,317.667 237.167,317.333 236.5,317C 232.936,317.865 229.269,318.199 225.5,318C 221.378,315.126 216.711,313.459 211.5,313C 211.957,312.586 212.291,312.086 212.5,311.5C 210.922,310.702 209.256,310.202 207.5,310C 207.833,309.667 208.167,309.333 208.5,309C 205.159,307.413 201.159,306.413 196.5,306C 192.936,302.267 193.936,299.767 199.5,298.5C 200.119,295.367 201.786,292.867 204.5,291C 203.355,288.801 203.355,286.635 204.5,284.5C 205.298,286.078 205.798,287.744 206,289.5C 206.333,288.5 206.667,287.5 207,286.5C 208.128,288.345 208.628,290.345 208.5,292.5C 211.572,292.817 214.572,292.484 217.5,291.5C 217.047,289.435 216.047,287.768 214.5,286.5C 213.614,287.325 213.281,288.325 213.5,289.5C 212.178,289.67 211.011,289.337 210,288.5C 208.066,286.581 208.233,285.081 210.5,284C 208.224,283.126 206.89,281.459 206.5,279C 207.424,277.189 208.257,277.355 209,279.5C 213.062,278.426 216.896,277.092 220.5,275.5C 220.231,277.429 220.731,279.095 222,280.5C 222.667,277.833 223.333,277.833 224,280.5C 224.837,278.649 225.671,276.816 226.5,275C 225.529,273.519 224.196,272.685 222.5,272.5C 224.635,270.631 227.302,269.964 230.5,270.5C 230.611,271.117 230.944,271.617 231.5,272C 233.833,272.333 236.167,272.667 238.5,273C 237.167,273.333 235.833,273.667 234.5,274C 236.828,274.83 239.162,275.663 241.5,276.5C 242.5,276.333 243.5,276.167 244.5,276C 242.205,273.288 242.705,270.788 246,268.5C 245.203,264.83 245.37,261.163 246.5,257.5C 243.549,248.973 243.883,240.639 247.5,232.5C 248.478,232.977 249.311,233.643 250,234.5C 250.828,229.798 250.662,225.131 249.5,220.5C 248.833,222.167 248.167,223.833 247.5,225.5C 245.227,224.625 244.227,222.958 244.5,220.5C 243.022,220.762 241.689,220.429 240.5,219.5C 241.605,218.108 242.939,216.941 244.5,216C 241.117,214.941 238.95,216.108 238,219.5C 236.699,217.635 236.365,215.635 237,213.5C 238.621,211.538 240.454,209.871 242.5,208.5C 240.066,205.848 237.733,206.014 235.5,209C 236.962,211.252 236.295,212.752 233.5,213.5C 234.661,215.224 234.495,216.89 233,218.5C 231.284,217.448 230.284,218.114 230,220.5C 229.833,219.667 229.667,218.833 229.5,218C 229.915,213.063 231.249,208.563 233.5,204.5C 234.833,204.167 236.167,203.833 237.5,203.5C 240.62,204.358 243.62,205.358 246.5,206.5C 246.483,203.477 245.483,200.81 243.5,198.5C 242.5,199.833 241.5,201.167 240.5,202.5C 239.127,200.51 238.127,198.343 237.5,196C 238.714,194.431 240.381,193.598 242.5,193.5C 246.882,194.294 251.215,195.294 255.5,196.5C 256.466,193.872 258.132,191.872 260.5,190.5C 260.167,189.5 259.5,188.833 258.5,188.5C 255.469,191.108 254.135,190.108 254.5,185.5C 255.342,181.131 256.342,176.797 257.5,172.5C 258.48,175.086 258.813,177.753 258.5,180.5C 259.5,180.5 260.5,180.5 261.5,180.5C 261.26,177.421 261.593,174.421 262.5,171.5C 260.258,170.308 257.925,169.308 255.5,168.5C 253.408,166.211 253.074,163.711 254.5,161C 256.433,160.749 258.266,160.249 260,159.5C 260.483,158.552 260.649,157.552 260.5,156.5C 262.924,156.192 265.257,156.526 267.5,157.5C 268.09,158.799 269.09,159.632 270.5,160C 269.833,160.333 269.167,160.667 268.5,161C 271.167,162 271.167,163 268.5,164C 269.444,166.719 269.777,169.552 269.5,172.5C 272.797,172.329 273.131,172.995 270.5,174.5C 279.757,176.401 279.757,177.734 270.5,178.5C 270.192,180.924 270.526,183.257 271.5,185.5C 272.429,184.311 272.762,182.978 272.5,181.5C 274.527,181.662 276.527,181.495 278.5,181C 277.833,180.667 277.167,180.333 276.5,180C 277.949,178.883 279.616,178.216 281.5,178C 283.037,176.89 283.703,175.39 283.5,173.5C 284.5,173.5 285.5,173.5 286.5,173.5C 286.337,171.143 286.503,168.81 287,166.5C 287.333,168.167 287.667,169.833 288,171.5C 288.333,171.167 288.667,170.833 289,170.5C 290.316,173.028 291.483,173.028 292.5,170.5C 293.5,171.5 294.5,172.5 295.5,173.5C 294.456,175.768 294.289,178.101 295,180.5C 296.715,178.065 297.882,175.398 298.5,172.5C 299.5,172.5 300.5,172.5 301.5,172.5C 302.509,177.796 302.676,183.129 302,188.5C 301.282,187.549 300.449,187.383 299.5,188C 300.5,189 301.5,190 302.5,191C 299.723,193.173 299.89,193.673 303,192.5C 303.219,191.062 303.719,189.729 304.5,188.5C 305.996,192.335 306.996,192.335 307.5,188.5C 308.5,188.5 309.5,188.5 310.5,188.5C 311.157,191.841 309.824,193.841 306.5,194.5C 309.667,196.524 313,196.857 316.5,195.5C 314.367,195.419 312.367,194.919 310.5,194C 311,193.5 311.5,193 312,192.5C 312.642,188.509 313.142,184.509 313.5,180.5C 312.022,180.762 310.689,180.429 309.5,179.5C 309.667,179.167 309.833,178.833 310,178.5C 311.734,179.249 313.567,179.749 315.5,180C 314.692,182.844 315.026,185.677 316.5,188.5C 317.743,185.681 319.243,183.014 321,180.5C 322.041,183.636 321.207,186.136 318.5,188C 320.779,188.473 322.779,189.473 324.5,191C 322.359,192.308 320.359,193.808 318.5,195.5C 319.098,196.795 319.598,198.128 320,199.5C 320.713,195.954 322.88,193.954 326.5,193.5C 328.427,195.293 330.761,196.293 333.5,196.5C 333.013,200.214 334.179,203.214 337,205.5C 339.575,205.731 342.241,205.398 345,204.5C 349.37,206.025 353.87,206.692 358.5,206.5C 358.338,208.527 358.505,210.527 359,212.5C 359.333,209.5 359.667,206.5 360,203.5C 361.813,204.609 362.646,203.942 362.5,201.5C 361.167,201.5 359.833,201.5 358.5,201.5C 358.5,202.5 358.5,203.5 358.5,204.5C 355.753,204.813 353.086,204.48 350.5,203.5C 350.099,201.566 349.099,200.066 347.5,199C 351.091,198.55 353.591,200.05 355,203.5C 356.202,201.323 356.702,198.989 356.5,196.5C 357.5,196.5 358.5,196.5 359.5,196.5C 359.596,200.311 360.262,200.311 361.5,196.5C 362.278,198.8 363.278,200.966 364.5,203C 363.633,206.105 363.299,209.272 363.5,212.5C 365.582,212.528 367.416,211.861 369,210.5C 369.167,210.833 369.333,211.167 369.5,211.5C 366.583,214.806 362.917,216.14 358.5,215.5C 358.719,216.675 358.386,217.675 357.5,218.5C 356.541,214.291 354.874,213.791 352.5,217C 354.082,219.085 356.082,220.585 358.5,221.5C 354.084,221.882 350.084,222.882 346.5,224.5 Z"/></g>
<g><path style="opacity:1" fill="#b4544d" d="M 231.5,252.5 C 230.5,255.5 228.5,257.5 225.5,258.5C 226.833,255.833 228.833,253.833 231.5,252.5 Z"/></g>
<g><path style="opacity:1" fill="#a6524c" d="M 199.5,256.5 C 203.282,261.621 207.948,265.621 213.5,268.5C 206.041,267.704 201.374,263.704 199.5,256.5 Z"/></g>
<g><path style="opacity:1" fill="#64344a" d="M 148.5,252.5 C 147.757,264.194 146.424,275.527 144.5,286.5C 143.167,286.5 142.5,285.833 142.5,284.5C 143.5,284.5 144.5,284.5 145.5,284.5C 145.334,276.493 145.5,268.493 146,260.5C 146.098,257.478 146.932,254.811 148.5,252.5 Z"/></g>
<g><path style="opacity:1" fill="#fbf5f3" d="M 342.5,226.5 C 344.062,226.267 345.395,225.6 346.5,224.5C 366.222,223.661 375.555,232.994 374.5,252.5C 372.174,257.793 368.841,262.459 364.5,266.5C 356.779,270.491 349.112,270.491 341.5,266.5C 341.189,265.522 340.522,264.855 339.5,264.5C 338.669,271.142 338.169,277.809 338,284.5C 336.33,286.698 334.33,287.032 332,285.5C 331.5,265.836 331.333,246.169 331.5,226.5C 333.011,224.559 335.011,224.059 337.5,225C 338.337,226.011 338.67,227.178 338.5,228.5C 340.38,228.771 341.713,228.104 342.5,226.5 Z"/></g>
<g><path style="opacity:1" fill="#dc908b" d="M 342.5,236.5 C 341.37,238.315 340.704,240.315 340.5,242.5C 339.521,245.625 339.187,248.958 339.5,252.5C 338.355,248.689 338.188,244.689 339,240.5C 339.66,238.676 340.827,237.343 342.5,236.5 Z"/></g>
<g><path style="opacity:1" fill="#e65347" d="M 342.5,256.5 C 341.5,255.167 340.5,253.833 339.5,252.5C 339.187,248.958 339.521,245.625 340.5,242.5C 341.684,240.59 343.184,240.257 345,241.5C 346.599,239.944 348.099,238.277 349.5,236.5C 350.429,237.689 350.762,239.022 350.5,240.5C 351.5,240.5 352.5,240.5 353.5,240.5C 353.085,238.052 354.085,236.719 356.5,236.5C 362.029,237.562 364.695,240.895 364.5,246.5C 365.048,255.026 361.048,259.026 352.5,258.5C 349.039,258.199 345.706,257.532 342.5,256.5 Z"/></g>
<g><path style="opacity:1" fill="#d04f45" d="M 342.5,256.5 C 345.706,257.532 349.039,258.199 352.5,258.5C 361.048,259.026 365.048,255.026 364.5,246.5C 364.695,240.895 362.029,237.562 356.5,236.5C 354.085,236.719 353.085,238.052 353.5,240.5C 352.5,240.5 351.5,240.5 350.5,240.5C 350.762,239.022 350.429,237.689 349.5,236.5C 348.099,238.277 346.599,239.944 345,241.5C 343.184,240.257 341.684,240.59 340.5,242.5C 340.704,240.315 341.37,238.315 342.5,236.5C 343.574,235.115 344.907,233.949 346.5,233C 361.991,230.491 368.491,236.991 366,252.5C 362.298,260.323 356.131,263.157 347.5,261C 345.34,260.004 343.673,258.504 342.5,256.5 Z"/></g>
<g><path style="opacity:1" fill="#925361" d="M 423.5,252.5 C 425.739,257.482 426.739,262.816 426.5,268.5C 425.833,267.167 425.167,265.833 424.5,264.5C 423.838,260.534 423.505,256.534 423.5,252.5 Z"/></g>
<g><path style="opacity:1" fill="#c15d57" d="M 374.5,252.5 C 374.5,253.833 374.5,255.167 374.5,256.5C 372.52,261.147 369.186,264.48 364.5,266.5C 368.841,262.459 372.174,257.793 374.5,252.5 Z"/></g>
<g><path style="opacity:1" fill="#936e51" d="M 115.5,266.5 C 116.833,266.5 117.5,267.167 117.5,268.5C 117.5,267.167 116.833,266.5 115.5,266.5 Z"/></g>
<g><path style="opacity:1" fill="#d24b42" d="M 205.5,228.5 C 198.556,236.617 196.556,245.951 199.5,256.5C 201.374,263.704 206.041,267.704 213.5,268.5C 220.055,269.366 226.055,268.033 231.5,264.5C 233.578,268.983 236.578,269.65 240.5,266.5C 240.461,267.583 240.127,268.583 239.5,269.5C 236.572,270.484 233.572,270.817 230.5,270.5C 227.302,269.964 224.635,270.631 222.5,272.5C 213.605,273.6 205.272,272.1 197.5,268C 197.833,267.667 198.167,267.333 198.5,267C 196.966,264.782 195.299,262.615 193.5,260.5C 192.571,259.311 192.238,257.978 192.5,256.5C 193.5,256.5 194.5,256.5 195.5,256.5C 195.5,255.167 195.5,253.833 195.5,252.5C 194.5,252.5 193.5,252.5 192.5,252.5C 192.128,247.976 193.295,243.976 196,240.5C 196.019,233.983 199.186,229.983 205.5,228.5 Z"/></g>
<g><path style="opacity:1" fill="#7a0f15" d="M 150.5,248.5 C 149.767,261.663 150.767,274.663 153.5,287.5C 153.48,288.726 153.147,289.726 152.5,290.5C 151.833,290.5 151.167,290.5 150.5,290.5C 148.5,289.167 146.5,287.833 144.5,286.5C 146.424,275.527 147.757,264.194 148.5,252.5C 149.167,251.167 149.833,249.833 150.5,248.5 Z"/></g>
<g><path style="opacity:1" fill="#d55a5a" d="M 424.5,264.5 C 425.167,265.833 425.833,267.167 426.5,268.5C 426.938,279.39 426.272,290.057 424.5,300.5C 424.5,288.5 424.5,276.5 424.5,264.5 Z"/></g>
<g><path style="opacity:1" fill="#d24d44" d="M 266.5,270.5 C 263.822,267.668 261.488,264.501 259.5,261C 256.143,259.859 254.143,261.025 253.5,264.5C 257.582,276.666 265.916,283.999 278.5,286.5C 279.167,287.167 279.833,287.833 280.5,288.5C 274.996,287.274 269.33,286.44 263.5,286C 262.983,282.466 260.983,280.299 257.5,279.5C 257.833,278.833 258.167,278.167 258.5,277.5C 256.234,276.686 253.9,276.186 251.5,276C 250.541,274.293 249.875,272.459 249.5,270.5C 250.327,267.217 250.66,263.884 250.5,260.5C 252.606,260.321 254.272,259.321 255.5,257.5C 254.477,255.105 255.477,254.105 258.5,254.5C 258.67,255.822 258.337,256.989 257.5,258C 262.826,260.483 265.826,264.65 266.5,270.5 Z"/></g>
<g><path style="opacity:1" fill="#483638" d="M 129.5,276.5 C 133.066,277.321 135.733,279.321 137.5,282.5C 134.109,281.471 131.443,279.471 129.5,276.5 Z"/></g>
<g><path style="opacity:1" fill="#fbf5f3" d="M 266.5,270.5 C 272.868,278.568 281.201,281.402 291.5,279C 301.305,276.189 308.305,270.189 312.5,261C 313.793,260.51 315.127,260.343 316.5,260.5C 317.347,262.029 318.014,263.696 318.5,265.5C 314.211,276.792 306.211,283.792 294.5,286.5C 289.167,286.5 283.833,286.5 278.5,286.5C 265.916,283.999 257.582,276.666 253.5,264.5C 254.143,261.025 256.143,259.859 259.5,261C 261.488,264.501 263.822,267.668 266.5,270.5 Z"/></g>
<g><path style="opacity:1" fill="#d94f44" d="M 281.5,288.5 C 286.1,288.72 290.433,288.054 294.5,286.5C 306.211,283.792 314.211,276.792 318.5,265.5C 318.014,263.696 317.347,262.029 316.5,260.5C 318.093,259.652 319.26,258.319 320,256.5C 320.667,263.167 320.667,269.833 320,276.5C 315.962,278.198 312.462,280.698 309.5,284C 310.5,284.333 311.5,284.667 312.5,285C 311.643,285.689 310.977,286.522 310.5,287.5C 305.803,289.171 301.136,290.838 296.5,292.5C 291.99,290.915 287.323,290.081 282.5,290C 281.944,289.617 281.611,289.117 281.5,288.5 Z"/></g>
<g><path style="opacity:1" fill="#edc5bc" d="M 278.5,286.5 C 283.833,286.5 289.167,286.5 294.5,286.5C 290.433,288.054 286.1,288.72 281.5,288.5C 281.167,288.5 280.833,288.5 280.5,288.5C 279.833,287.833 279.167,287.167 278.5,286.5 Z"/></g>
<g><path style="opacity:1" fill="#c3736d" d="M 331.5,226.5 C 331.333,246.169 331.5,265.836 332,285.5C 334.33,287.032 336.33,286.698 338,284.5C 338.169,277.809 338.669,271.142 339.5,264.5C 340.522,264.855 341.189,265.522 341.5,266.5C 339.794,273.14 338.794,280.14 338.5,287.5C 335.679,288.971 333.179,288.637 331,286.5C 330.171,266.329 330.338,246.329 331.5,226.5 Z"/></g>
<g><path style="opacity:1" fill="#7a5b47" d="M 445.5,286.5 C 444.167,286.5 442.833,286.5 441.5,286.5C 441.155,290.115 441.822,293.448 443.5,296.5C 442.25,296.423 441.417,295.756 441,294.5C 440.502,291.183 440.335,287.85 440.5,284.5C 442.781,284.077 444.448,284.744 445.5,286.5 Z"/></g>
<g><path style="opacity:1" fill="#33354c" d="M 449.5,288.5 C 452.247,288.187 454.914,288.52 457.5,289.5C 457.167,290.167 456.833,290.833 456.5,291.5C 459.379,292.08 461.046,293.747 461.5,296.5C 457.148,294.327 453.148,291.66 449.5,288.5 Z"/></g>
<g><path style="opacity:1" fill="#cb443d" d="M 342.5,226.5 C 341.713,228.104 340.38,228.771 338.5,228.5C 338.67,227.178 338.337,226.011 337.5,225C 335.011,224.059 333.011,224.559 331.5,226.5C 330.338,246.329 330.171,266.329 331,286.5C 333.179,288.637 335.679,288.971 338.5,287.5C 338.794,280.14 339.794,273.14 341.5,266.5C 349.112,270.491 356.779,270.491 364.5,266.5C 363.993,267.859 362.993,268.859 361.5,269.5C 357.181,270.286 352.847,270.953 348.5,271.5C 345.823,271.251 343.49,270.251 341.5,268.5C 340.7,276.501 340.034,284.501 339.5,292.5C 337.136,291.471 334.803,291.471 332.5,292.5C 330.226,292.03 328.226,291.03 326.5,289.5C 327.415,288.672 328.081,287.672 328.5,286.5C 327.901,282.531 327.568,278.531 327.5,274.5C 328.158,258.505 328.658,242.505 329,226.5C 330.239,224.018 332.239,222.685 335,222.5C 337.684,223.606 340.184,224.94 342.5,226.5 Z"/></g>
<g><path style="opacity:1" fill="#ab7947" d="M 111.5,294.5 C 113.483,294.157 114.817,294.824 115.5,296.5C 113.517,296.843 112.183,296.176 111.5,294.5 Z"/></g>
<g><path style="opacity:1" fill="#bf8344" d="M 115.5,296.5 C 120.08,296.412 123.413,298.412 125.5,302.5C 121.575,301.421 118.242,299.421 115.5,296.5 Z"/></g>
<g><path style="opacity:1" fill="#a67043" d="M 126.5,302.5 C 128.483,302.157 129.817,302.824 130.5,304.5C 128.517,304.843 127.183,304.176 126.5,302.5 Z"/></g>
<g><path style="opacity:1" fill="#47393c" d="M 134.5,306.5 C 137.442,308.217 140.609,309.55 144,310.5C 145.03,310.836 145.53,311.503 145.5,312.5C 140.241,313.294 136.574,311.294 134.5,306.5 Z"/></g>
<g><path style="opacity:1" fill="#f59132" d="M 445.5,286.5 C 446.605,287.6 447.938,288.267 449.5,288.5C 453.148,291.66 457.148,294.327 461.5,296.5C 473.394,304.723 484.061,314.39 493.5,325.5C 497.611,331.144 499.278,337.478 498.5,344.5C 496.992,346.181 495.992,348.181 495.5,350.5C 492.214,352.955 489.214,355.622 486.5,358.5C 486.167,358.5 485.833,358.5 485.5,358.5C 482.594,359.108 480.26,360.441 478.5,362.5C 477.833,362.5 477.167,362.5 476.5,362.5C 471.534,363.347 466.867,364.68 462.5,366.5C 461.5,366.5 460.5,366.5 459.5,366.5C 456.302,365.964 453.635,366.631 451.5,368.5C 451.167,368.5 450.833,368.5 450.5,368.5C 447.833,368.5 445.167,368.5 442.5,368.5C 426.5,368.5 410.5,368.5 394.5,368.5C 371.351,367.95 348.351,365.95 325.5,362.5C 324.5,362.5 323.5,362.5 322.5,362.5C 305.273,359.199 287.94,355.866 270.5,352.5C 254.767,347.932 238.767,343.932 222.5,340.5C 205.4,334.354 188.067,328.354 170.5,322.5C 163.208,319.504 155.875,316.504 148.5,313.5C 148.5,313.167 148.5,312.833 148.5,312.5C 150.527,312.338 152.527,312.505 154.5,313C 154.167,313.333 153.833,313.667 153.5,314C 155.289,314.52 156.956,314.187 158.5,313C 155.956,310.907 152.956,309.907 149.5,310C 149.833,309.667 150.167,309.333 150.5,309C 147.972,308.002 147.972,307.169 150.5,306.5C 152.334,307.754 154.334,308.421 156.5,308.5C 156.672,306.508 156.005,304.842 154.5,303.5C 147.421,302.843 145.087,299.176 147.5,292.5C 149.714,294.924 150.714,294.257 150.5,290.5C 151.167,290.5 151.833,290.5 152.5,290.5C 155.872,292.456 159.538,294.123 163.5,295.5C 164.927,297.718 166.927,299.218 169.5,300C 179.778,303.445 189.778,307.445 199.5,312C 211.605,315.224 223.605,318.724 235.5,322.5C 254.412,327.876 273.412,333.043 292.5,338C 303.827,339.666 315.161,341.166 326.5,342.5C 326.611,343.117 326.944,343.617 327.5,344C 354.667,347.893 382,349.393 409.5,348.5C 415.842,348.666 422.175,348.5 428.5,348C 429.416,347.722 430.082,347.222 430.5,346.5C 434.898,346.87 438.564,345.536 441.5,342.5C 442.167,342.5 442.833,342.5 443.5,342.5C 447.409,342.876 450.409,341.543 452.5,338.5C 455.069,338.262 456.735,336.929 457.5,334.5C 459.969,333.393 460.969,331.393 460.5,328.5C 461.726,324.633 461.726,320.633 460.5,316.5C 460.708,312.915 459.375,310.249 456.5,308.5C 456.167,308.5 455.833,308.5 455.5,308.5C 453.183,304.518 450.183,301.185 446.5,298.5C 446.179,296.952 445.179,296.285 443.5,296.5C 441.822,293.448 441.155,290.115 441.5,286.5C 442.833,286.5 444.167,286.5 445.5,286.5 Z"/></g>
<g><path style="opacity:1" fill="#894b5e" d="M 420.5,322.5 C 420.741,324.898 420.074,326.898 418.5,328.5C 418.259,326.102 418.926,324.102 420.5,322.5 Z"/></g>
<g><path style="opacity:1" fill="#874f5e" d="M 422.5,316.5 C 422.741,318.898 422.074,320.898 420.5,322.5C 420.259,320.102 420.926,318.102 422.5,316.5 Z"/></g>
<g><path style="opacity:1" fill="#b9804a" d="M 456.5,308.5 C 459.375,310.249 460.708,312.915 460.5,316.5C 458.659,314.151 457.326,311.485 456.5,308.5 Z"/></g>
<g><path style="opacity:1" fill="#423234" d="M 446.5,298.5 C 450.183,301.185 453.183,304.518 455.5,308.5C 451.447,306.113 448.447,302.78 446.5,298.5 Z"/></g>
<g><path style="opacity:1" fill="#61334c" d="M 150.5,320.5 C 153.048,323.996 154.381,327.996 154.5,332.5C 152.538,328.914 151.205,324.914 150.5,320.5 Z"/></g>
<g><path style="opacity:1" fill="#b3865c" d="M 460.5,328.5 C 460.969,331.393 459.969,333.393 457.5,334.5C 457.992,332.181 458.992,330.181 460.5,328.5 Z"/></g>
<g><path style="opacity:1" fill="#721016" d="M 173.5,328.5 C 193.375,351.031 217.375,367.698 245.5,378.5C 246.335,379.943 247.668,380.943 249.5,381.5C 251.167,383.167 250.833,384.167 248.5,384.5C 242.813,380.602 236.479,378.269 229.5,377.5C 219.879,372.308 210.546,366.642 201.5,360.5C 198.268,358.777 194.935,357.444 191.5,356.5C 191.461,355.417 191.127,354.417 190.5,353.5C 186.163,349.666 181.663,346 177,342.5C 176.667,341.167 176.333,339.833 176,338.5C 175.29,339.973 174.124,340.64 172.5,340.5C 172.646,337.446 171.313,335.446 168.5,334.5C 168.863,332.089 167.863,330.589 165.5,330C 165.833,329.667 166.167,329.333 166.5,329C 162.97,328.328 161.637,326.162 162.5,322.5C 164.144,322.714 165.644,322.38 167,321.5C 167.397,325.712 169.564,328.046 173.5,328.5 Z"/></g>
<g><path style="opacity:1" fill="#c8502c" d="M 170.5,322.5 C 188.067,328.354 205.4,334.354 222.5,340.5C 220.143,340.663 217.81,340.497 215.5,340C 207.488,336.805 199.155,334.805 190.5,334C 185.414,329.712 179.081,326.546 171.5,324.5C 170.662,324.158 170.328,323.492 170.5,322.5 Z"/></g>
<g><path style="opacity:1" fill="#cc925c" d="M 457.5,334.5 C 456.735,336.929 455.069,338.262 452.5,338.5C 452.833,337.833 453.167,337.167 453.5,336.5C 454.605,335.4 455.938,334.733 457.5,334.5 Z"/></g>
<g><path style="opacity:1" fill="#523354" d="M 418.5,328.5 C 417.751,334.84 416.084,340.84 413.5,346.5C 412.566,345.432 412.232,344.099 412.5,342.5C 414.545,337.755 416.545,333.089 418.5,328.5 Z"/></g>
<g><path style="opacity:1" fill="#2a3756" d="M 453.5,336.5 C 453.167,337.167 452.833,337.833 452.5,338.5C 449.256,339.463 446.256,340.796 443.5,342.5C 442.833,342.5 442.167,342.5 441.5,342.5C 437.425,343.308 433.758,344.641 430.5,346.5C 427.167,346.5 423.833,346.5 420.5,346.5C 422.635,344.631 425.302,343.964 428.5,344.5C 428.238,343.022 428.571,341.689 429.5,340.5C 431.46,339.277 433.293,337.944 435,336.5C 435.49,337.793 435.657,339.127 435.5,340.5C 437.924,340.808 440.257,340.474 442.5,339.5C 443.929,336.183 445.762,335.85 448,338.5C 449.597,337.115 451.43,336.449 453.5,336.5 Z"/></g>
<g><path style="opacity:1" fill="#d69653" d="M 452.5,338.5 C 450.409,341.543 447.409,342.876 443.5,342.5C 446.256,340.796 449.256,339.463 452.5,338.5 Z"/></g>
<g><path style="opacity:1" fill="#c4884b" d="M 441.5,342.5 C 438.564,345.536 434.898,346.87 430.5,346.5C 433.758,344.641 437.425,343.308 441.5,342.5 Z"/></g>
<g><path style="opacity:1" fill="#de593c" d="M 326.5,342.5 C 338.337,343.959 350.337,344.626 362.5,344.5C 372.055,345.93 381.722,346.597 391.5,346.5C 398.002,346.417 404.335,345.75 410.5,344.5C 410.5,345.5 410.5,346.5 410.5,347.5C 409.833,347.5 409.5,347.833 409.5,348.5C 382,349.393 354.667,347.893 327.5,344C 326.944,343.617 326.611,343.117 326.5,342.5 Z"/></g>
<g><path style="opacity:1" fill="#502922" d="M 412.5,342.5 C 412.232,344.099 412.566,345.432 413.5,346.5C 415.167,346.5 416.833,346.5 418.5,346.5C 416.052,347.473 413.385,347.806 410.5,347.5C 410.5,346.5 410.5,345.5 410.5,344.5C 411.167,343.833 411.833,343.167 412.5,342.5 Z"/></g>
<g><path style="opacity:1" fill="#d8904e" d="M 418.5,346.5 C 419.167,346.5 419.833,346.5 420.5,346.5C 423.833,346.5 427.167,346.5 430.5,346.5C 430.082,347.222 429.416,347.722 428.5,348C 422.175,348.5 415.842,348.666 409.5,348.5C 409.5,347.833 409.833,347.5 410.5,347.5C 413.385,347.806 416.052,347.473 418.5,346.5 Z"/></g>
<g><path style="opacity:1" fill="#142d56" d="M 527.5,152.5 C 527.175,263.188 527.508,373.855 528.5,484.5C 527.833,483.833 527.167,483.167 526.5,482.5C 526.167,372.332 526.501,262.332 527.5,152.5 Z"/></g>
<g><path style="opacity:1" fill="#cf5038" d="M 222.5,340.5 C 238.767,343.932 254.767,347.932 270.5,352.5C 270.5,353.167 270.5,353.833 270.5,354.5C 261.269,355.269 252.603,353.602 244.5,349.5C 237.193,347.888 229.86,346.221 222.5,344.5C 222.5,343.167 222.5,341.833 222.5,340.5 Z"/></g>
<g><path style="opacity:1" fill="#4b3f32" d="M 498.5,344.5 C 498.969,347.393 497.969,349.393 495.5,350.5C 495.992,348.181 496.992,346.181 498.5,344.5 Z"/></g>
<g><path style="opacity:1" fill="#e55347" d="M 171.5,324.5 C 179.081,326.546 185.414,329.712 190.5,334C 199.155,334.805 207.488,336.805 215.5,340C 217.81,340.497 220.143,340.663 222.5,340.5C 222.5,341.833 222.5,343.167 222.5,344.5C 229.86,346.221 237.193,347.888 244.5,349.5C 252.603,353.602 261.269,355.269 270.5,354.5C 279.95,355.819 289.283,357.652 298.5,360C 306.432,361.538 314.432,362.372 322.5,362.5C 323.5,362.5 324.5,362.5 325.5,362.5C 325.611,363.117 325.944,363.617 326.5,364C 345.611,367.758 364.945,369.925 384.5,370.5C 382.763,372.55 380.763,374.383 378.5,376C 357.711,387.659 335.377,393.159 311.5,392.5C 297.512,392.53 283.845,390.53 270.5,386.5C 262.171,384.091 253.837,381.425 245.5,378.5C 217.375,367.698 193.375,351.031 173.5,328.5C 172.4,327.395 171.733,326.062 171.5,324.5 Z"/></g>
<g><path style="opacity:1" fill="#3e3339" d="M 495.5,350.5 C 494.048,354.954 491.048,357.621 486.5,358.5C 489.214,355.622 492.214,352.955 495.5,350.5 Z"/></g>
<g><path style="opacity:1" fill="#c34f27" d="M 270.5,352.5 C 287.94,355.866 305.273,359.199 322.5,362.5C 314.432,362.372 306.432,361.538 298.5,360C 289.283,357.652 279.95,355.819 270.5,354.5C 270.5,353.833 270.5,353.167 270.5,352.5 Z"/></g>
<g><path style="opacity:1" fill="#3d3239" d="M 485.5,358.5 C 483.973,361.068 481.639,362.401 478.5,362.5C 480.26,360.441 482.594,359.108 485.5,358.5 Z"/></g>
<g><path style="opacity:1" fill="#453653" d="M 161.5,348.5 C 165.331,353.489 168.664,358.822 171.5,364.5C 170.167,364.5 168.833,364.5 167.5,364.5C 167.798,360.399 166.132,357.733 162.5,356.5C 162.167,353.833 161.833,351.167 161.5,348.5 Z"/></g>
<g><path style="opacity:1" fill="#453c41" d="M 476.5,362.5 C 475.322,363.999 473.655,364.999 471.5,365.5C 468.572,366.484 465.572,366.817 462.5,366.5C 466.867,364.68 471.534,363.347 476.5,362.5 Z"/></g>
<g><path style="opacity:1" fill="#991f23" d="M 148.5,313.5 C 155.875,316.504 163.208,319.504 170.5,322.5C 170.328,323.492 170.662,324.158 171.5,324.5C 171.733,326.062 172.4,327.395 173.5,328.5C 169.564,328.046 167.397,325.712 167,321.5C 165.644,322.38 164.144,322.714 162.5,322.5C 161.637,326.162 162.97,328.328 166.5,329C 166.167,329.333 165.833,329.667 165.5,330C 167.863,330.589 168.863,332.089 168.5,334.5C 170.168,340.001 173.501,344.167 178.5,347C 178.167,347.333 177.833,347.667 177.5,348C 179.359,348.684 181.026,349.684 182.5,351C 181.833,351.667 181.167,352.333 180.5,353C 184.41,356.218 188.577,359.051 193,361.5C 193.281,363.905 192.615,363.905 191,361.5C 190.517,362.448 190.351,363.448 190.5,364.5C 193.892,364.871 196.558,366.537 198.5,369.5C 205.233,372.469 212.233,374.969 219.5,377C 219.167,377.333 218.833,377.667 218.5,378C 220.407,379.069 221.741,380.569 222.5,382.5C 220.83,382.751 219.33,383.418 218,384.5C 216.681,382.75 216.181,380.75 216.5,378.5C 213.174,378.646 210.007,377.979 207,376.5C 204.237,376.918 201.57,377.584 199,378.5C 194.943,377.225 191.443,378.225 188.5,381.5C 189.127,382.417 189.461,383.417 189.5,384.5C 187.879,384.213 186.879,383.213 186.5,381.5C 185.311,380.571 183.978,380.238 182.5,380.5C 182.437,377.092 180.77,374.759 177.5,373.5C 175.228,370.607 173.228,367.607 171.5,364.5C 168.664,358.822 165.331,353.489 161.5,348.5C 159.152,343.14 156.818,337.807 154.5,332.5C 154.381,327.996 153.048,323.996 150.5,320.5C 150.606,317.921 149.939,315.588 148.5,313.5 Z"/></g>
<g><path style="opacity:1" fill="#735c4f" d="M 459.5,366.5 C 457.095,367.768 454.428,368.435 451.5,368.5C 453.635,366.631 456.302,365.964 459.5,366.5 Z"/></g>
<g><path style="opacity:1" fill="#c35027" d="M 325.5,362.5 C 348.351,365.95 371.351,367.95 394.5,368.5C 395.167,369.167 395.833,369.833 396.5,370.5C 395.5,370.5 394.5,370.5 393.5,370.5C 390.5,370.5 387.5,370.5 384.5,370.5C 364.945,369.925 345.611,367.758 326.5,364C 325.944,363.617 325.611,363.117 325.5,362.5 Z"/></g>
<g><path style="opacity:1" fill="#9e693a" d="M 394.5,368.5 C 410.5,368.5 426.5,368.5 442.5,368.5C 438.5,369.167 434.5,369.833 430.5,370.5C 419.167,370.5 407.833,370.5 396.5,370.5C 395.833,369.833 395.167,369.167 394.5,368.5 Z"/></g>
<g><path style="opacity:1" fill="#3c312e" d="M 442.5,368.5 C 445.167,368.5 447.833,368.5 450.5,368.5C 444.588,370.456 438.255,371.123 431.5,370.5C 431.167,370.5 430.833,370.5 430.5,370.5C 434.5,369.833 438.5,369.167 442.5,368.5 Z"/></g>
<g><path style="opacity:1" fill="#7d181d" d="M 191.5,356.5 C 194.935,357.444 198.268,358.777 201.5,360.5C 210.546,366.642 219.879,372.308 229.5,377.5C 236.479,378.269 242.813,380.602 248.5,384.5C 250.833,384.167 251.167,383.167 249.5,381.5C 247.668,380.943 246.335,379.943 245.5,378.5C 253.837,381.425 262.171,384.091 270.5,386.5C 272.584,388.076 274.584,389.909 276.5,392C 262.995,392.191 250.162,389.357 238,383.5C 235.21,384.782 233.043,383.948 231.5,381C 222.439,377.571 213.773,373.238 205.5,368C 202.637,366.636 200.637,364.47 199.5,361.5C 196.237,360.529 193.57,358.863 191.5,356.5 Z"/></g>
<g><path style="opacity:1" fill="#2e3349" d="M 393.5,370.5 C 394.5,370.5 395.5,370.5 396.5,370.5C 407.833,370.5 419.167,370.5 430.5,370.5C 430.833,370.5 431.167,370.5 431.5,370.5C 418.701,371.904 405.701,373.237 392.5,374.5C 392.833,373.167 393.167,371.833 393.5,370.5 Z"/></g>
<g><path style="opacity:1" fill="#54324c" d="M 382.5,384.5 C 380.391,389.612 376.724,392.945 371.5,394.5C 373.797,391.201 376.464,388.201 379.5,385.5C 380.325,384.614 381.325,384.281 382.5,384.5 Z"/></g>
<g><path style="opacity:1" fill="#8f2024" d="M 168.5,334.5 C 171.313,335.446 172.646,337.446 172.5,340.5C 174.124,340.64 175.29,339.973 176,338.5C 176.333,339.833 176.667,341.167 177,342.5C 181.663,346 186.163,349.666 190.5,353.5C 191.127,354.417 191.461,355.417 191.5,356.5C 193.57,358.863 196.237,360.529 199.5,361.5C 200.637,364.47 202.637,366.636 205.5,368C 213.773,373.238 222.439,377.571 231.5,381C 233.043,383.948 235.21,384.782 238,383.5C 250.162,389.357 262.995,392.191 276.5,392C 274.584,389.909 272.584,388.076 270.5,386.5C 283.845,390.53 297.512,392.53 311.5,392.5C 313.631,393.314 315.964,393.814 318.5,394C 318.957,394.414 319.291,394.914 319.5,395.5C 301.176,396.666 282.842,396.833 264.5,396C 259.909,394.947 255.242,394.114 250.5,393.5C 249.126,392.289 247.626,391.289 246,390.5C 243.566,391.322 241.066,391.656 238.5,391.5C 238.881,389.058 238.214,388.391 236.5,389.5C 232.685,387.704 228.685,386.37 224.5,385.5C 223.388,384.735 222.721,383.735 222.5,382.5C 221.741,380.569 220.407,379.069 218.5,378C 218.833,377.667 219.167,377.333 219.5,377C 212.233,374.969 205.233,372.469 198.5,369.5C 196.558,366.537 193.892,364.871 190.5,364.5C 190.351,363.448 190.517,362.448 191,361.5C 192.615,363.905 193.281,363.905 193,361.5C 188.577,359.051 184.41,356.218 180.5,353C 181.167,352.333 181.833,351.667 182.5,351C 181.026,349.684 179.359,348.684 177.5,348C 177.833,347.667 178.167,347.333 178.5,347C 173.501,344.167 170.168,340.001 168.5,334.5 Z"/></g>
<g><path style="opacity:1" fill="#5b334d" d="M 366.5,398.5 C 364.973,401.068 362.639,402.401 359.5,402.5C 361.027,399.932 363.361,398.599 366.5,398.5 Z"/></g>
<g><path style="opacity:1" fill="#a2262a" d="M 384.5,370.5 C 387.5,370.5 390.5,370.5 393.5,370.5C 393.167,371.833 392.833,373.167 392.5,374.5C 389.17,377.817 385.837,381.15 382.5,384.5C 381.325,384.281 380.325,384.614 379.5,385.5C 376.464,388.201 373.797,391.201 371.5,394.5C 369.323,395.279 367.656,396.613 366.5,398.5C 363.361,398.599 361.027,399.932 359.5,402.5C 355.494,404.505 351.494,406.505 347.5,408.5C 344.446,408.354 342.446,409.687 341.5,412.5C 340.833,412.5 340.167,412.5 339.5,412.5C 337.517,412.157 336.183,412.824 335.5,414.5C 335.167,414.5 334.833,414.5 334.5,414.5C 330.308,414.892 326.641,416.226 323.5,418.5C 316.56,420.116 309.56,421.449 302.5,422.5C 291.833,422.5 281.167,422.5 270.5,422.5C 265.056,422.539 259.723,421.873 254.5,420.5C 253.665,419.057 252.332,418.057 250.5,417.5C 247.572,416.516 244.572,416.183 241.5,416.5C 238.062,415.392 234.729,414.058 231.5,412.5C 229.223,409.867 226.223,408.534 222.5,408.5C 220.202,407.69 217.868,406.856 215.5,406C 213.124,403.026 210.124,400.859 206.5,399.5C 203.104,396.434 199.438,393.767 195.5,391.5C 193.719,388.909 191.719,386.575 189.5,384.5C 189.461,383.417 189.127,382.417 188.5,381.5C 191.443,378.225 194.943,377.225 199,378.5C 201.57,377.584 204.237,376.918 207,376.5C 210.007,377.979 213.174,378.646 216.5,378.5C 216.181,380.75 216.681,382.75 218,384.5C 219.33,383.418 220.83,382.751 222.5,382.5C 222.721,383.735 223.388,384.735 224.5,385.5C 228.685,386.37 232.685,387.704 236.5,389.5C 238.214,388.391 238.881,389.058 238.5,391.5C 241.066,391.656 243.566,391.322 246,390.5C 247.626,391.289 249.126,392.289 250.5,393.5C 255.242,394.114 259.909,394.947 264.5,396C 282.842,396.833 301.176,396.666 319.5,395.5C 319.291,394.914 318.957,394.414 318.5,394C 315.964,393.814 313.631,393.314 311.5,392.5C 335.377,393.159 357.711,387.659 378.5,376C 380.763,374.383 382.763,372.55 384.5,370.5 Z"/></g>
<g><path style="opacity:1" fill="#793246" d="M 222.5,408.5 C 226.223,408.534 229.223,409.867 231.5,412.5C 227.777,412.466 224.777,411.133 222.5,408.5 Z"/></g>
<g><path style="opacity:1" fill="#5d3547" d="M 347.5,408.5 C 346.554,411.313 344.554,412.646 341.5,412.5C 342.446,409.687 344.446,408.354 347.5,408.5 Z"/></g>
<g><path style="opacity:1" fill="#6a3346" d="M 339.5,412.5 C 338.817,414.176 337.483,414.843 335.5,414.5C 336.183,412.824 337.517,412.157 339.5,412.5 Z"/></g>
<g><path style="opacity:1" fill="#7c3341" d="M 241.5,416.5 C 244.572,416.183 247.572,416.516 250.5,417.5C 252.332,418.057 253.665,419.057 254.5,420.5C 250.535,419.631 246.535,418.798 242.5,418C 241.944,417.617 241.611,417.117 241.5,416.5 Z"/></g>
<g><path style="opacity:1" fill="#5b3452" d="M 334.5,414.5 C 333.993,415.859 332.993,416.859 331.5,417.5C 328.914,418.48 326.247,418.813 323.5,418.5C 326.641,416.226 330.308,414.892 334.5,414.5 Z"/></g>
<g><path style="opacity:1" fill="#683952" d="M 270.5,422.5 C 281.167,422.5 291.833,422.5 302.5,422.5C 297.544,423.828 292.211,424.495 286.5,424.5C 280.789,424.495 275.456,423.828 270.5,422.5 Z"/></g>
<g><path style="opacity:0.827" fill="#343f55" d="M 34.5,495.5 C 35.9008,495.971 37.2342,496.638 38.5,497.5C 40.8334,504.162 44.6667,509.829 50,514.5C 50.3076,513.692 50.8076,513.025 51.5,512.5C 52.1341,514.567 53.1341,516.4 54.5,518C 57.4324,518.272 59.9324,519.438 62,521.5C 62.4828,522.448 62.6495,523.448 62.5,524.5C 49.1403,518.806 39.8069,509.139 34.5,495.5 Z"/></g>
<g><path style="opacity:1" fill="#303c54" d="M 526.5,482.5 C 527.167,483.167 527.833,483.833 528.5,484.5C 527.537,491.409 525.204,497.743 521.5,503.5C 520.094,503.973 519.427,504.973 519.5,506.5C 517.212,510.456 514.212,513.789 510.5,516.5C 512.221,512.877 514.054,509.211 516,505.5C 518.245,503.377 520.245,501.044 522,498.5C 522.853,492.799 524.353,487.466 526.5,482.5 Z"/></g>
<g><path style="opacity:0.125" fill="#acb0bb" d="M 521.5,503.5 C 521.573,505.027 520.906,506.027 519.5,506.5C 519.427,504.973 520.094,503.973 521.5,503.5 Z"/></g>
<g><path style="opacity:1" fill="#1b2437" d="M 510.5,516.5 C 502.932,523.617 493.932,528.117 483.5,530C 347.833,530.667 212.167,530.667 76.5,530C 72.7894,529.156 69.1228,528.156 65.5,527C 64.0577,526.623 63.0577,525.79 62.5,524.5C 67.8333,525.167 73.1667,525.833 78.5,526.5C 211.496,528.498 344.829,529.165 478.5,528.5C 484.323,526.616 490.323,525.116 496.5,524C 497.973,523.29 498.64,522.124 498.5,520.5C 500.167,520.5 501.833,520.5 503.5,520.5C 503.5,519.167 503.5,517.833 503.5,516.5C 505.833,516.5 508.167,516.5 510.5,516.5 Z"/></g>
<g><path style="opacity:1" fill="#1c3961" d="M 78.5,526.5 C 212.171,525.835 345.504,526.502 478.5,528.5C 344.829,529.165 211.496,528.498 78.5,526.5 Z"/></g>
</svg>
