<?xml version="1.0" encoding="UTF-8"?>
<!DOCTYPE svg PUBLIC "-//W3C//DTD SVG 1.1//EN" "http://www.w3.org/Graphics/SVG/1.1/DTD/svg11.dtd">
<svg xmlns="http://www.w3.org/2000/svg" version="1.1" width="561px" height="561px" style="shape-rendering:geometricPrecision; text-rendering:geometricPrecision; image-rendering:optimizeQuality; fill-rule:evenodd; clip-rule:evenodd" xmlns:xlink="http://www.w3.org/1999/xlink">
<g><path style="opacity:1" fill="#28355a" d="M 511.5,43.5 C 507.842,42.3609 504.508,40.5275 501.5,38C 496.647,35.9011 491.647,34.4011 486.5,33.5C 485.737,32.7321 484.737,32.2321 483.5,32C 415.5,31.8333 347.5,31.6667 279.5,31.5C 211.163,31.5 143.163,32.1667 75.5,33.5C 71.8333,33.5 68.1667,33.5 64.5,33.5C 67.5035,31.7383 70.8368,30.5717 74.5,30C 211.5,29.3333 348.5,29.3333 485.5,30C 495.793,31.6441 504.459,36.1441 511.5,43.5 Z"/></g>
<g><path style="opacity:1" fill="#30509b" d="M 486.5,33.5 C 349.5,33.5 212.5,33.5 75.5,33.5C 143.163,32.1667 211.163,31.5 279.5,31.5C 347.5,31.6667 415.5,31.8333 483.5,32C 484.737,32.2321 485.737,32.7321 486.5,33.5 Z"/></g>
<g><path style="opacity:1" fill="#374365" d="M 64.5,33.5 C 59.8772,37.8198 54.5438,41.1531 48.5,43.5C 49.6253,41.8712 50.9586,40.3712 52.5,39C 56.1438,36.3441 60.1438,34.5107 64.5,33.5 Z"/></g>
<g><path style="opacity:1" fill="#2e50a1" d="M 64.5,33.5 C 68.1667,33.5 71.8333,33.5 75.5,33.5C 212.5,33.5 349.5,33.5 486.5,33.5C 491.647,34.4011 496.647,35.9011 501.5,38C 504.508,40.5275 507.842,42.3609 511.5,43.5C 512.167,43.8333 512.833,44.1667 513.5,44.5C 516.266,50.4728 519.766,56.1395 524,61.5C 525.727,64.6179 526.561,67.9513 526.5,71.5C 525.233,206.622 523.899,341.622 522.5,476.5C 523.077,478.55 524.41,479.55 526.5,479.5C 525.616,484.111 524.616,488.778 523.5,493.5C 522.702,491.922 522.202,490.256 522,488.5C 520.936,490.269 519.769,491.936 518.5,493.5C 520.984,495.536 521.984,498.202 521.5,501.5C 520.527,503.447 519.527,505.447 518.5,507.5C 514.924,509.065 512.924,511.732 512.5,515.5C 511.448,515.351 510.448,515.517 509.5,516C 504.348,521.464 498.015,524.797 490.5,526C 491.737,526.232 492.737,526.732 493.5,527.5C 492.609,528.11 491.609,528.443 490.5,528.5C 487.375,527.521 484.042,527.187 480.5,527.5C 346.166,527.667 211.833,527.5 77.5,527C 73.1103,525.97 68.7769,524.804 64.5,523.5C 61.3681,520.949 57.7014,519.449 53.5,519C 50.3471,516.953 48.0137,514.287 46.5,511C 46.8333,510.667 47.1667,510.333 47.5,510C 45.324,509.837 43.4907,509.004 42,507.5C 41.7411,503.966 40.2411,501.3 37.5,499.5C 36.6618,499.158 36.3284,498.492 36.5,497.5C 37.0037,493.493 37.1703,489.493 37,485.5C 35.222,483.055 33.8887,480.389 33,477.5C 32.3333,343.5 32.3333,209.5 33,75.5C 34.5366,71.5568 35.87,67.5568 37,63.5C 37.3333,64.1667 37.6667,64.8333 38,65.5C 39.1353,65.273 40.302,64.9396 41.5,64.5C 39.6294,61.5979 39.2961,58.5979 40.5,55.5C 43.5589,51.772 46.2256,47.772 48.5,43.5C 54.5438,41.1531 59.8772,37.8198 64.5,33.5 Z"/></g>
<g><path style="opacity:1" fill="#394566" d="M 48.5,43.5 C 46.2256,47.772 43.5589,51.772 40.5,55.5C 39.2402,57.3671 37.5735,58.7005 35.5,59.5C 38.3857,52.9518 42.719,47.6185 48.5,43.5 Z"/></g>
<g><path style="opacity:0.749" fill="#202944" d="M 513.5,44.5 C 522.635,52.7626 528.135,63.0959 530,75.5C 530.5,209.833 530.667,344.166 530.5,478.5C 529.833,345.833 529.167,213.167 528.5,80.5C 528.932,77.1226 528.265,74.1226 526.5,71.5C 526.561,67.9513 525.727,64.6179 524,61.5C 519.766,56.1395 516.266,50.4728 513.5,44.5 Z"/></g>
<g><path style="opacity:1" fill="#32509a" d="M 40.5,55.5 C 39.2961,58.5979 39.6294,61.5979 41.5,64.5C 40.302,64.9396 39.1353,65.273 38,65.5C 37.6667,64.8333 37.3333,64.1667 37,63.5C 35.87,67.5568 34.5366,71.5568 33,75.5C 32.3333,209.5 32.3333,343.5 33,477.5C 33.8887,480.389 35.222,483.055 37,485.5C 37.1703,489.493 37.0037,493.493 36.5,497.5C 34.8828,495.879 33.7162,493.879 33,491.5C 32.1721,487.534 31.6721,483.534 31.5,479.5C 31.3333,344.166 31.5,208.833 32,73.5C 33.4822,68.8916 34.6489,64.2249 35.5,59.5C 37.5735,58.7005 39.2402,57.3671 40.5,55.5 Z"/></g>
<g><path style="opacity:1" fill="#2d519d" d="M 526.5,71.5 C 528.265,74.1226 528.932,77.1226 528.5,80.5C 528.667,215.5 528.5,350.5 528,485.5C 527.153,491.506 524.986,496.84 521.5,501.5C 521.984,498.202 520.984,495.536 518.5,493.5C 519.769,491.936 520.936,490.269 522,488.5C 522.202,490.256 522.702,491.922 523.5,493.5C 524.616,488.778 525.616,484.111 526.5,479.5C 524.41,479.55 523.077,478.55 522.5,476.5C 523.899,341.622 525.233,206.622 526.5,71.5 Z"/></g>
<g><path style="opacity:1" fill="#344c89" d="M 35.5,59.5 C 34.6489,64.2249 33.4822,68.8916 32,73.5C 31.5,208.833 31.3333,344.166 31.5,479.5C 30.5004,345.001 30.1671,210.334 30.5,75.5C 30.9875,69.709 32.6541,64.3757 35.5,59.5 Z"/></g>
<g><path style="opacity:1" fill="#8d9fc6" d="M 316.5,195.5 C 329.504,195.333 342.504,195.5 355.5,196C 356.056,196.383 356.389,196.883 356.5,197.5C 343.5,197.5 330.5,197.5 317.5,197.5C 317.167,197.5 316.833,197.5 316.5,197.5C 316.5,196.833 316.5,196.167 316.5,195.5 Z"/></g>
<g><path style="opacity:1" fill="#fdfefe" d="M 123.5,197.5 C 124.5,198.167 125.5,198.833 126.5,199.5C 128.345,201.856 129.678,204.523 130.5,207.5C 130.682,211.216 132.348,213.883 135.5,215.5C 136.393,217.297 137.726,218.63 139.5,219.5C 139.877,221.258 140.544,222.925 141.5,224.5C 143.299,227.163 145.299,229.496 147.5,231.5C 148.524,235.57 150.524,238.904 153.5,241.5C 153.791,242.649 154.624,243.316 156,243.5C 156.833,243.167 157.667,242.833 158.5,242.5C 159.028,240.664 159.694,238.997 160.5,237.5C 162.701,235.496 164.701,233.163 166.5,230.5C 167.456,228.925 168.123,227.258 168.5,225.5C 168.833,224.5 169.5,223.833 170.5,223.5C 171.496,223.586 172.329,223.252 173,222.5C 174.169,218.335 176.502,215.001 180,212.5C 180.668,209.249 181.834,206.249 183.5,203.5C 185.079,201.77 186.746,199.936 188.5,198C 199.828,197.5 211.162,197.333 222.5,197.5C 222.5,245.5 222.5,293.5 222.5,341.5C 210.833,341.5 199.167,341.5 187.5,341.5C 187.5,334.833 187.5,328.167 187.5,321.5C 187.5,321.167 187.5,320.833 187.5,320.5C 188.497,299.006 188.831,277.34 188.5,255.5C 186.833,255.5 185.167,255.5 183.5,255.5C 182.932,259.734 180.598,262.4 176.5,263.5C 176.5,264.833 176.5,266.167 176.5,267.5C 176.768,269.099 176.434,270.432 175.5,271.5C 173.659,272.402 172.326,273.736 171.5,275.5C 168.41,277.268 166.41,279.935 165.5,283.5C 161.664,286.678 158.998,290.678 157.5,295.5C 156.5,295.5 155.5,295.5 154.5,295.5C 152.41,288.618 148.41,283.285 142.5,279.5C 142.13,276.733 140.796,274.733 138.5,273.5C 136.681,267.692 133.347,263.025 128.5,259.5C 128.213,256.516 126.546,255.183 123.5,255.5C 123.333,275.503 123.5,295.503 124,315.5C 124.172,321.681 124.672,327.681 125.5,333.5C 125.5,336.5 125.5,339.5 125.5,342.5C 112.989,342.829 100.655,342.495 88.5,341.5C 88.5,293.5 88.5,245.5 88.5,197.5C 100.167,197.5 111.833,197.5 123.5,197.5 Z"/></g>
<g><path style="opacity:1" fill="#5972ad" d="M 316.5,195.5 C 316.5,196.167 316.5,196.833 316.5,197.5C 309.073,198.471 301.74,199.805 294.5,201.5C 295.122,199.665 296.456,198.498 298.5,198C 304.265,196.054 310.265,195.22 316.5,195.5 Z"/></g>
<g><path style="opacity:1" fill="#fefefe" d="M 383.5,197.5 C 395.5,197.5 407.5,197.5 419.5,197.5C 419.168,235.004 419.502,272.337 420.5,309.5C 436.466,311.485 452.799,312.152 469.5,311.5C 467.639,321.654 464.973,331.654 461.5,341.5C 435.5,341.5 409.5,341.5 383.5,341.5C 383.5,293.5 383.5,245.5 383.5,197.5 Z"/></g>
<g><path style="opacity:1" fill="#fdfdfe" d="M 317.5,197.5 C 330.5,197.5 343.5,197.5 356.5,197.5C 356.335,200.85 356.502,204.183 357,207.5C 360.248,214.159 362.415,221.159 363.5,228.5C 349.99,228.171 336.656,228.504 323.5,229.5C 320.813,229.336 318.146,229.503 315.5,230C 314.944,230.383 314.611,230.883 314.5,231.5C 310.035,230.572 306.702,231.906 304.5,235.5C 301.109,236.529 298.443,238.529 296.5,241.5C 292.82,243.18 290.153,245.847 288.5,249.5C 287.624,249.369 286.957,249.702 286.5,250.5C 285.65,253.573 284.65,256.573 283.5,259.5C 282.566,260.568 282.232,261.901 282.5,263.5C 295.544,264.147 308.211,263.48 320.5,261.5C 321.18,253.432 321.847,245.265 322.5,237C 334.495,236.5 346.495,236.333 358.5,236.5C 358.5,271.833 358.5,307.167 358.5,342.5C 346.253,342.822 334.086,342.488 322,341.5C 321.831,327.327 321.331,313.327 320.5,299.5C 320.5,298.167 320.5,296.833 320.5,295.5C 306.163,295.333 291.829,295.5 277.5,296C 276.878,297.569 276.544,299.236 276.5,301C 276.336,303.544 277.003,305.71 278.5,307.5C 278.348,312.281 279.014,316.948 280.5,321.5C 282.754,325.007 284.754,328.673 286.5,332.5C 286.957,333.298 287.624,333.631 288.5,333.5C 288.66,335.153 289.326,336.486 290.5,337.5C 290.785,339.288 290.452,340.955 289.5,342.5C 285.499,345.175 281.832,348.175 278.5,351.5C 272.742,352.304 268.075,354.97 264.5,359.5C 262.712,359.785 261.045,359.452 259.5,358.5C 252.231,345.391 246.564,331.724 242.5,317.5C 242.253,316.287 241.586,315.62 240.5,315.5C 240.5,314.833 240.5,314.167 240.5,313.5C 238.725,300.904 238.225,288.237 239,275.5C 240.683,266.767 242.683,258.101 245,249.5C 248.328,243.17 251.661,236.837 255,230.5C 260.466,225.034 265.966,219.534 271.5,214C 275.959,212.476 279.959,210.309 283.5,207.5C 295.394,204.974 306.727,201.64 317.5,197.5 Z"/></g>
<g><path style="opacity:1" fill="#b9c5e2" d="M 382.5,196.5 C 395.413,196.178 408.246,196.511 421,197.5C 421.5,234.832 421.667,272.165 421.5,309.5C 421.167,309.5 420.833,309.5 420.5,309.5C 419.502,272.337 419.168,235.004 419.5,197.5C 407.5,197.5 395.5,197.5 383.5,197.5C 382.501,245.664 382.168,293.997 382.5,342.5C 381.501,294.336 381.168,246.003 381.5,197.5C 381.5,196.833 381.833,196.5 382.5,196.5 Z"/></g>
<g><path style="opacity:1" fill="#4d69ab" d="M 85.5,197.5 C 85.1678,246.003 85.5012,294.336 86.5,342.5C 86.5,343.167 86.8333,343.5 87.5,343.5C 100.323,344.495 113.323,344.829 126.5,344.5C 113.34,345.66 100.006,345.827 86.5,345C 86,344.5 85.5,344 85,343.5C 84.1684,294.665 84.335,245.998 85.5,197.5 Z"/></g>
<g><path style="opacity:1" fill="#7588b9" d="M 126.5,199.5 C 125.5,198.833 124.5,198.167 123.5,197.5C 111.5,196.167 99.5,196.167 87.5,197.5C 86.5012,245.664 86.1678,293.997 86.5,342.5C 85.5012,294.336 85.1678,246.003 85.5,197.5C 85.6107,196.883 85.944,196.383 86.5,196C 99.1667,195.333 111.833,195.333 124.5,196C 125.823,196.816 126.489,197.983 126.5,199.5 Z"/></g>
<g><path style="opacity:1" fill="#a7b4d5" d="M 87.5,197.5 C 87.1678,245.67 87.5012,293.67 88.5,341.5C 100.655,342.495 112.989,342.829 125.5,342.5C 113.011,343.495 100.344,343.829 87.5,343.5C 86.8333,343.5 86.5,343.167 86.5,342.5C 86.1678,293.997 86.5012,245.664 87.5,197.5 Z"/></g>
<g><path style="opacity:1" fill="#cdd4eb" d="M 123.5,197.5 C 111.833,197.5 100.167,197.5 88.5,197.5C 88.5,245.5 88.5,293.5 88.5,341.5C 87.5012,293.67 87.1678,245.67 87.5,197.5C 99.5,196.167 111.5,196.167 123.5,197.5 Z"/></g>
<g><path style="opacity:1" fill="#8b9fc9" d="M 224.5,197.5 C 225.499,245.997 225.832,294.664 225.5,343.5C 224.833,343.5 224.167,343.5 223.5,343.5C 223.5,343.167 223.5,342.833 223.5,342.5C 224.499,294.336 224.832,246.003 224.5,197.5 Z"/></g>
<g><path style="opacity:1" fill="#c8cfe7" d="M 316.5,197.5 C 316.833,197.5 317.167,197.5 317.5,197.5C 306.727,201.64 295.394,204.974 283.5,207.5C 284.401,205.273 286.067,204.273 288.5,204.5C 288.5,203.5 288.5,202.5 288.5,201.5C 290.5,201.5 292.5,201.5 294.5,201.5C 301.74,199.805 309.073,198.471 316.5,197.5 Z"/></g>
<g><path style="opacity:1" fill="#e9f1fb" d="M 383.5,197.5 C 383.5,245.5 383.5,293.5 383.5,341.5C 409.5,341.5 435.5,341.5 461.5,341.5C 435.339,342.498 409.005,342.831 382.5,342.5C 382.168,293.997 382.501,245.664 383.5,197.5 Z"/></g>
<g><path style="opacity:1" fill="#6c83b3" d="M 382.5,196.5 C 395.656,195.504 408.99,195.171 422.5,195.5C 422.5,233.167 422.5,270.833 422.5,308.5C 438.5,309.167 454.5,309.833 470.5,310.5C 453.991,310.83 437.658,310.496 421.5,309.5C 421.667,272.165 421.5,234.832 421,197.5C 408.246,196.511 395.413,196.178 382.5,196.5 Z"/></g>
<g><path style="opacity:1" fill="#bccae3" d="M 130.5,207.5 C 132.5,208.167 133.833,209.5 134.5,211.5C 134.833,212.833 135.167,214.167 135.5,215.5C 132.348,213.883 130.682,211.216 130.5,207.5 Z"/></g>
<g><path style="opacity:1" fill="#7c93c2" d="M 134.5,211.5 C 137.138,213.418 138.805,216.085 139.5,219.5C 137.726,218.63 136.393,217.297 135.5,215.5C 135.167,214.167 134.833,212.833 134.5,211.5 Z"/></g>
<g><path style="opacity:1" fill="#b8c4df" d="M 356.5,197.5 C 359.928,205.845 362.762,214.512 365,223.5C 365.789,225.712 365.622,227.712 364.5,229.5C 350.833,229.5 337.167,229.5 323.5,229.5C 336.656,228.504 349.99,228.171 363.5,228.5C 362.415,221.159 360.248,214.159 357,207.5C 356.502,204.183 356.335,200.85 356.5,197.5 Z"/></g>
<g><path style="opacity:1" fill="#abb9dd" d="M 183.5,203.5 C 181.834,206.249 180.668,209.249 180,212.5C 176.502,215.001 174.169,218.335 173,222.5C 172.329,223.252 171.496,223.586 170.5,223.5C 172.87,215.393 177.203,208.727 183.5,203.5 Z"/></g>
<g><path style="opacity:1" fill="#5e74b2" d="M 139.5,219.5 C 141.282,220.72 143.282,221.386 145.5,221.5C 145.31,225.032 145.977,228.365 147.5,231.5C 145.299,229.496 143.299,227.163 141.5,224.5C 140.544,222.925 139.877,221.258 139.5,219.5 Z"/></g>
<g><path style="opacity:1" fill="#8ba1d4" d="M 323.5,229.5 C 337.167,229.5 350.833,229.5 364.5,229.5C 364.5,229.833 364.5,230.167 364.5,230.5C 347.818,230.313 331.151,230.647 314.5,231.5C 314.611,230.883 314.944,230.383 315.5,230C 318.146,229.503 320.813,229.336 323.5,229.5 Z"/></g>
<g><path style="opacity:1" fill="#c3cfec" d="M 314.5,231.5 C 310.989,232.447 307.656,233.78 304.5,235.5C 306.702,231.906 310.035,230.572 314.5,231.5 Z"/></g>
<g><path style="opacity:1" fill="#8c9ecb" d="M 168.5,225.5 C 168.123,227.258 167.456,228.925 166.5,230.5C 164.701,233.163 162.701,235.496 160.5,237.5C 161.63,232.388 164.297,228.388 168.5,225.5 Z"/></g>
<g><path style="opacity:1" fill="#4962a0" d="M 364.5,230.5 C 351.34,231.331 338.006,231.831 324.5,232C 324.167,232.333 323.833,232.667 323.5,233C 335.674,233.169 347.674,233.669 359.5,234.5C 346.087,234.186 332.754,234.519 319.5,235.5C 319.155,244.381 318.155,253.048 316.5,261.5C 316.394,252.749 316.561,244.083 317,235.5C 312.663,233.438 309.996,234.771 309,239.5C 308.326,238.422 307.326,237.755 306,237.5C 302.782,238.738 299.616,240.072 296.5,241.5C 298.443,238.529 301.109,236.529 304.5,235.5C 307.656,233.78 310.989,232.447 314.5,231.5C 331.151,230.647 347.818,230.313 364.5,230.5 Z"/></g>
<g><path style="opacity:1" fill="#c2cce0" d="M 358.5,342.5 C 358.5,307.167 358.5,271.833 358.5,236.5C 346.495,236.333 334.495,236.5 322.5,237C 321.847,245.265 321.18,253.432 320.5,261.5C 320.183,252.915 320.517,244.415 321.5,236C 334.162,235.5 346.829,235.333 359.5,235.5C 359.832,271.337 359.498,307.004 358.5,342.5 Z"/></g>
<g><path style="opacity:1" fill="#8d9ecd" d="M 147.5,231.5 C 150.476,234.096 152.476,237.43 153.5,241.5C 150.524,238.904 148.524,235.57 147.5,231.5 Z"/></g>
<g><path style="opacity:1" fill="#7f92c3" d="M 381.5,197.5 C 381.168,246.003 381.501,294.336 382.5,342.5C 408.995,343.498 435.661,343.831 462.5,343.5C 435.338,344.498 408.005,344.831 380.5,344.5C 380.168,295.33 380.501,246.33 381.5,197.5 Z"/></g>
<g><path style="opacity:1" fill="#7f94c1" d="M 296.5,241.5 C 295.766,242.708 295.433,244.041 295.5,245.5C 294.448,245.351 293.448,245.517 292.5,246C 291.468,247.627 290.134,248.793 288.5,249.5C 290.153,245.847 292.82,243.18 296.5,241.5 Z"/></g>
<g><path style="opacity:1" fill="#2c4fa0" d="M 316.5,261.5 C 305.813,261.832 295.146,261.499 284.5,260.5C 285.989,256.87 287.322,253.204 288.5,249.5C 290.134,248.793 291.468,247.627 292.5,246C 293.448,245.517 294.448,245.351 295.5,245.5C 295.433,244.041 295.766,242.708 296.5,241.5C 299.616,240.072 302.782,238.738 306,237.5C 307.326,237.755 308.326,238.422 309,239.5C 309.996,234.771 312.663,233.438 317,235.5C 316.561,244.083 316.394,252.749 316.5,261.5 Z"/></g>
<g><path style="opacity:1" fill="#95a7d0" d="M 283.5,207.5 C 279.959,210.309 275.959,212.476 271.5,214C 265.966,219.534 260.466,225.034 255,230.5C 251.661,236.837 248.328,243.17 245,249.5C 242.683,258.101 240.683,266.767 239,275.5C 238.225,288.237 238.725,300.904 240.5,313.5C 239.307,313.03 238.64,312.03 238.5,310.5C 232.482,281.259 237.649,254.259 254,229.5C 259.779,223.721 265.613,217.887 271.5,212C 275.359,209.993 279.359,208.493 283.5,207.5 Z"/></g>
<g><path style="opacity:1" fill="#8096c8" d="M 359.5,234.5 C 360.498,270.663 360.832,306.996 360.5,343.5C 359.833,343.5 359.167,343.5 358.5,343.5C 358.5,343.167 358.5,342.833 358.5,342.5C 359.498,307.004 359.832,271.337 359.5,235.5C 346.829,235.333 334.162,235.5 321.5,236C 320.517,244.415 320.183,252.915 320.5,261.5C 308.211,263.48 295.544,264.147 282.5,263.5C 282.232,261.901 282.566,260.568 283.5,259.5C 283.5,260.5 283.5,261.5 283.5,262.5C 295.5,262.5 307.5,262.5 319.5,262.5C 319.5,253.5 319.5,244.5 319.5,235.5C 332.754,234.519 346.087,234.186 359.5,234.5 Z"/></g>
<g><path style="opacity:1" fill="#6176a9" d="M 319.5,235.5 C 319.5,244.5 319.5,253.5 319.5,262.5C 307.5,262.5 295.5,262.5 283.5,262.5C 283.5,261.5 283.5,260.5 283.5,259.5C 284.65,256.573 285.65,253.573 286.5,250.5C 286.957,249.702 287.624,249.369 288.5,249.5C 287.322,253.204 285.989,256.87 284.5,260.5C 295.146,261.499 305.813,261.832 316.5,261.5C 318.155,253.048 319.155,244.381 319.5,235.5 Z"/></g>
<g><path style="opacity:1" fill="#b9c4dc" d="M 128.5,259.5 C 133.347,263.025 136.681,267.692 138.5,273.5C 135.219,269.544 131.886,265.544 128.5,261.5C 128.5,260.833 128.5,260.167 128.5,259.5 Z"/></g>
<g><path style="opacity:1" fill="#9daed3" d="M 187.5,320.5 C 187.5,320.833 187.5,321.167 187.5,321.5C 186.509,328.313 186.175,335.313 186.5,342.5C 185.509,335.687 185.175,328.687 185.5,321.5C 185.831,300.66 185.497,279.993 184.5,259.5C 184.821,257.952 185.821,257.285 187.5,257.5C 187.5,278.5 187.5,299.5 187.5,320.5 Z"/></g>
<g><path style="opacity:1" fill="#9fafd1" d="M 138.5,273.5 C 140.796,274.733 142.13,276.733 142.5,279.5C 140.204,278.267 138.87,276.267 138.5,273.5 Z"/></g>
<g><path style="opacity:1" fill="#c0cce8" d="M 171.5,275.5 C 169.984,278.533 167.984,281.2 165.5,283.5C 166.41,279.935 168.41,277.268 171.5,275.5 Z"/></g>
<g><path style="opacity:1" fill="#98aad0" d="M 126.5,259.5 C 125.504,272.656 125.171,285.99 125.5,299.5C 124.174,285.994 124.174,272.328 125.5,258.5C 126.107,258.624 126.44,258.957 126.5,259.5 Z"/></g>
<g><path style="opacity:1" fill="#7c90c4" d="M 126.5,259.5 C 127.167,259.5 127.833,259.5 128.5,259.5C 128.5,260.167 128.5,260.833 128.5,261.5C 126.52,273.789 125.853,286.456 126.5,299.5C 126.829,314.01 126.496,328.343 125.5,342.5C 125.5,339.5 125.5,336.5 125.5,333.5C 125.5,322.167 125.5,310.833 125.5,299.5C 125.171,285.99 125.504,272.656 126.5,259.5 Z"/></g>
<g><path style="opacity:1" fill="#5c72ae" d="M 175.5,271.5 C 174.992,273.865 174.325,276.199 173.5,278.5C 170.833,280.815 168.166,283.149 165.5,285.5C 165.5,284.833 165.5,284.167 165.5,283.5C 167.984,281.2 169.984,278.533 171.5,275.5C 172.326,273.736 173.659,272.402 175.5,271.5 Z"/></g>
<g><path style="opacity:1" fill="#dfe7f2" d="M 222.5,197.5 C 223.499,245.664 223.832,293.997 223.5,342.5C 223.5,342.833 223.5,343.167 223.5,343.5C 210.989,343.829 198.655,343.495 186.5,342.5C 186.175,335.313 186.509,328.313 187.5,321.5C 187.5,328.167 187.5,334.833 187.5,341.5C 199.167,341.5 210.833,341.5 222.5,341.5C 222.5,293.5 222.5,245.5 222.5,197.5 Z"/></g>
<g><path style="opacity:1" fill="#b2bddc" d="M 142.5,279.5 C 148.41,283.285 152.41,288.618 154.5,295.5C 153.833,295.5 153.167,295.5 152.5,295.5C 148.689,290.561 145.355,285.228 142.5,279.5 Z"/></g>
<g><path style="opacity:1" fill="#5671b1" d="M 184.5,259.5 C 185.497,279.993 185.831,300.66 185.5,321.5C 184.508,328.648 184.175,335.981 184.5,343.5C 184.524,316.17 184.19,288.836 183.5,261.5C 183.833,260.833 184.167,260.167 184.5,259.5 Z"/></g>
<g><path style="opacity:1" fill="#d4dbed" d="M 187.5,320.5 C 187.5,299.5 187.5,278.5 187.5,257.5C 185.821,257.285 184.821,257.952 184.5,259.5C 184.167,260.167 183.833,260.833 183.5,261.5C 181.467,263.868 179.133,265.868 176.5,267.5C 176.5,266.167 176.5,264.833 176.5,263.5C 180.598,262.4 182.932,259.734 183.5,255.5C 185.167,255.5 186.833,255.5 188.5,255.5C 188.831,277.34 188.497,299.006 187.5,320.5 Z"/></g>
<g><path style="opacity:1" fill="#5a70ae" d="M 163.5,289.5 C 162.695,293.303 160.695,296.303 157.5,298.5C 154.531,299.845 152.864,298.845 152.5,295.5C 153.167,295.5 153.833,295.5 154.5,295.5C 155.5,295.5 156.5,295.5 157.5,295.5C 159.515,293.424 161.515,291.424 163.5,289.5 Z"/></g>
<g><path style="opacity:1" fill="#a3b2d7" d="M 165.5,283.5 C 165.5,284.167 165.5,284.833 165.5,285.5C 165.267,287.062 164.6,288.395 163.5,289.5C 161.515,291.424 159.515,293.424 157.5,295.5C 158.998,290.678 161.664,286.678 165.5,283.5 Z"/></g>
<g><path style="opacity:1" fill="#a0b0da" d="M 320.5,299.5 C 320.5,314.167 320.5,328.833 320.5,343.5C 319.883,343.389 319.383,343.056 319,342.5C 318.831,327.328 318.331,312.328 317.5,297.5C 304.677,296.505 291.677,296.171 278.5,296.5C 278.5,300.167 278.5,303.833 278.5,307.5C 277.003,305.71 276.336,303.544 276.5,301C 276.544,299.236 276.878,297.569 277.5,296C 291.829,295.5 306.163,295.333 320.5,295.5C 320.5,296.833 320.5,298.167 320.5,299.5 Z"/></g>
<g><path style="opacity:1" fill="#c1c8e6" d="M 224.5,197.5 C 224.832,246.003 224.499,294.336 223.5,342.5C 223.832,293.997 223.499,245.664 222.5,197.5C 211.162,197.333 199.828,197.5 188.5,198C 186.746,199.936 185.079,201.77 183.5,203.5C 184.234,202.292 184.567,200.959 184.5,199.5C 185.478,199.189 186.145,198.522 186.5,197.5C 199.327,196.175 211.994,196.175 224.5,197.5 Z"/></g>
<g><path style="opacity:1" fill="#6b7fad" d="M 317.5,297.5 C 304.816,297.168 292.149,297.501 279.5,298.5C 280.439,302.765 280.772,307.098 280.5,311.5C 279.833,310.167 279.167,308.833 278.5,307.5C 278.5,303.833 278.5,300.167 278.5,296.5C 291.677,296.171 304.677,296.505 317.5,297.5 Z"/></g>
<g><path style="opacity:1" fill="#4560a6" d="M 317.5,297.5 C 318.331,312.328 318.831,327.328 319,342.5C 319.383,343.056 319.883,343.389 320.5,343.5C 333.167,343.5 345.833,343.5 358.5,343.5C 359.167,343.5 359.833,343.5 360.5,343.5C 360.389,344.117 360.056,344.617 359.5,345C 345.864,344.891 332.364,345.724 319,347.5C 318.5,347.167 318,346.833 317.5,346.5C 316.515,330.548 316.182,314.548 316.5,298.5C 304.833,298.5 293.167,298.5 281.5,298.5C 281.335,302.182 281.501,305.848 282,309.5C 282.333,309.833 282.667,310.167 283,310.5C 283.249,309.376 283.749,308.376 284.5,307.5C 285.799,309.307 285.632,310.973 284,312.5C 283.333,314.833 283.333,317.167 284,319.5C 285.863,321.893 287.196,324.56 288,327.5C 288.333,327.167 288.667,326.833 289,326.5C 289.236,330.339 290.069,334.006 291.5,337.5C 291.167,337.5 290.833,337.5 290.5,337.5C 289.326,336.486 288.66,335.153 288.5,333.5C 286.313,328.12 283.813,322.787 281,317.5C 280.505,315.527 280.338,313.527 280.5,311.5C 280.772,307.098 280.439,302.765 279.5,298.5C 292.149,297.501 304.816,297.168 317.5,297.5 Z"/></g>
<g><path style="opacity:1" fill="#667eb6" d="M 225.5,343.5 C 225.832,294.664 225.499,245.997 224.5,197.5C 211.994,196.175 199.327,196.175 186.5,197.5C 186.145,198.522 185.478,199.189 184.5,199.5C 184.539,198.417 184.873,197.417 185.5,196.5C 199.063,195.178 212.563,195.178 226,196.5C 226.832,245.668 226.665,294.668 225.5,343.5 Z"/></g>
<g><path style="opacity:1" fill="#cad3eb" d="M 128.5,259.5 C 127.833,259.5 127.167,259.5 126.5,259.5C 126.44,258.957 126.107,258.624 125.5,258.5C 124.174,272.328 124.174,285.994 125.5,299.5C 125.5,310.833 125.5,322.167 125.5,333.5C 124.672,327.681 124.172,321.681 124,315.5C 123.5,295.503 123.333,275.503 123.5,255.5C 126.546,255.183 128.213,256.516 128.5,259.5 Z"/></g>
<g><path style="opacity:1" fill="#4663ab" d="M 422.5,308.5 C 439.868,308.208 457.201,308.542 474.5,309.5C 474.741,311.898 474.074,313.898 472.5,315.5C 472.923,313.219 472.256,311.552 470.5,310.5C 454.5,309.833 438.5,309.167 422.5,308.5 Z"/></g>
<g><path style="opacity:1" fill="#8b9ec8" d="M 470.5,310.5 C 472.256,311.552 472.923,313.219 472.5,315.5C 471.715,318.404 470.381,321.07 468.5,323.5C 469.908,319.314 470.575,314.981 470.5,310.5 Z"/></g>
<g><path style="opacity:1" fill="#c2cfe8" d="M 278.5,307.5 C 279.167,308.833 279.833,310.167 280.5,311.5C 280.338,313.527 280.505,315.527 281,317.5C 283.813,322.787 286.313,328.12 288.5,333.5C 287.624,333.631 286.957,333.298 286.5,332.5C 284.754,328.673 282.754,325.007 280.5,321.5C 279.014,316.948 278.348,312.281 278.5,307.5 Z"/></g>
<g><path style="opacity:1" fill="#b1bcdb" d="M 240.5,315.5 C 241.586,315.62 242.253,316.287 242.5,317.5C 246.564,331.724 252.231,345.391 259.5,358.5C 261.045,359.452 262.712,359.785 264.5,359.5C 264.03,360.693 263.03,361.36 261.5,361.5C 260.5,361.167 259.5,360.833 258.5,360.5C 252.759,349.69 247.593,338.69 243,327.5C 241.846,323.553 241.013,319.553 240.5,315.5 Z"/></g>
<g><path style="opacity:1" fill="#c6cfe1" d="M 320.5,299.5 C 321.331,313.327 321.831,327.327 322,341.5C 334.086,342.488 346.253,342.822 358.5,342.5C 358.5,342.833 358.5,343.167 358.5,343.5C 345.833,343.5 333.167,343.5 320.5,343.5C 320.5,328.833 320.5,314.167 320.5,299.5 Z"/></g>
<g><path style="opacity:1" fill="#c1cde4" d="M 420.5,309.5 C 420.833,309.5 421.167,309.5 421.5,309.5C 437.658,310.496 453.991,310.83 470.5,310.5C 470.575,314.981 469.908,319.314 468.5,323.5C 466.713,330.208 464.713,336.874 462.5,343.5C 435.661,343.831 408.995,343.498 382.5,342.5C 409.005,342.831 435.339,342.498 461.5,341.5C 464.973,331.654 467.639,321.654 469.5,311.5C 452.799,312.152 436.466,311.485 420.5,309.5 Z"/></g>
<g><path style="opacity:1" fill="#6c84bf" d="M 126.5,299.5 C 127.823,314.402 127.823,329.402 126.5,344.5C 113.323,344.829 100.323,344.495 87.5,343.5C 100.344,343.829 113.011,343.495 125.5,342.5C 126.496,328.343 126.829,314.01 126.5,299.5 Z"/></g>
<g><path style="opacity:1" fill="#748cc4" d="M 185.5,321.5 C 185.175,328.687 185.509,335.687 186.5,342.5C 198.655,343.495 210.989,343.829 223.5,343.5C 224.167,343.5 224.833,343.5 225.5,343.5C 211.833,344.833 198.167,344.833 184.5,343.5C 184.175,335.981 184.508,328.648 185.5,321.5 Z"/></g>
<g><path style="opacity:1" fill="#91a1c8" d="M 290.5,337.5 C 290.833,337.5 291.167,337.5 291.5,337.5C 291.799,339.604 291.466,341.604 290.5,343.5C 287.306,347.359 283.306,350.025 278.5,351.5C 281.832,348.175 285.499,345.175 289.5,342.5C 290.452,340.955 290.785,339.288 290.5,337.5 Z"/></g>
<g><path style="opacity:1" fill="#b2bfdc" d="M 278.5,351.5 C 277.71,352.794 276.71,353.961 275.5,355C 271.78,356.406 268.114,357.906 264.5,359.5C 268.075,354.97 272.742,352.304 278.5,351.5 Z"/></g>
<g><path style="opacity:1" fill="#21283c" d="M 30.5,75.5 C 30.1671,210.334 30.5004,345.001 31.5,479.5C 31.6721,483.534 32.1721,487.534 33,491.5C 33.7162,493.879 34.8828,495.879 36.5,497.5C 36.3284,498.492 36.6618,499.158 37.5,499.5C 38.5515,502.193 39.5515,504.86 40.5,507.5C 38.2243,505.669 36.391,503.336 35,500.5C 32.9344,495.637 31.2678,490.637 30,485.5C 29.1673,348.666 29.3339,211.999 30.5,75.5 Z"/></g>
<g><path style="opacity:1" fill="#3f4c74" d="M 528.5,80.5 C 529.167,213.167 529.833,345.833 530.5,478.5C 529.781,490.826 525.614,501.826 518,511.5C 516.549,513.464 514.716,514.797 512.5,515.5C 512.924,511.732 514.924,509.065 518.5,507.5C 519.527,505.447 520.527,503.447 521.5,501.5C 524.986,496.84 527.153,491.506 528,485.5C 528.5,350.5 528.667,215.5 528.5,80.5 Z"/></g>
<g><path style="opacity:0.765" fill="#3b4872" d="M 37.5,499.5 C 40.2411,501.3 41.7411,503.966 42,507.5C 43.4907,509.004 45.324,509.837 47.5,510C 47.1667,510.333 46.8333,510.667 46.5,511C 48.0137,514.287 50.3471,516.953 53.5,519C 57.7014,519.449 61.3681,520.949 64.5,523.5C 67.0703,526.279 70.4036,527.779 74.5,528C 73.944,528.383 73.6107,528.883 73.5,529.5C 61.1703,526.75 50.6703,520.75 42,511.5C 41.2086,510.255 40.7086,508.922 40.5,507.5C 39.5515,504.86 38.5515,502.193 37.5,499.5 Z"/></g>
<g><path style="opacity:0.851" fill="#464f6a" d="M 512.5,515.5 C 511.432,517.74 509.766,519.574 507.5,521C 503.202,523.982 498.536,526.149 493.5,527.5C 492.737,526.732 491.737,526.232 490.5,526C 498.015,524.797 504.348,521.464 509.5,516C 510.448,515.517 511.448,515.351 512.5,515.5 Z"/></g>
<g><path style="opacity:1" fill="#2a3a6b" d="M 64.5,523.5 C 68.7769,524.804 73.1103,525.97 77.5,527C 211.833,527.5 346.166,527.667 480.5,527.5C 480.5,528.5 480.5,529.5 480.5,530.5C 344.763,530.832 209.097,530.498 73.5,529.5C 73.6107,528.883 73.944,528.383 74.5,528C 70.4036,527.779 67.0703,526.279 64.5,523.5 Z"/></g>
<g><path style="opacity:0.757" fill="#3d4765" d="M 480.5,527.5 C 484.042,527.187 487.375,527.521 490.5,528.5C 487.272,529.546 483.939,530.212 480.5,530.5C 480.5,529.5 480.5,528.5 480.5,527.5 Z"/></g>
</svg>
