<?xml version="1.0" encoding="UTF-8" standalone="no" ?>
<!DOCTYPE svg PUBLIC "-//W3C//DTD SVG 1.1//EN" "http://www.w3.org/Graphics/SVG/1.1/DTD/svg11.dtd">
<svg xmlns="http://www.w3.org/2000/svg" xmlns:xlink="http://www.w3.org/1999/xlink" version="1.1" width="1080" height="1080" viewBox="0 0 1080 1080" xml:space="preserve">
<desc>Created with Fabric.js 5.2.4</desc>
<defs>
</defs>
<g transform="matrix(1 0 0 1 540 540)" id="adb3b4f7-ebb6-430a-8883-73e755d07986"  >
<rect style="stroke: none; stroke-width: 1; stroke-dasharray: none; stroke-linecap: butt; stroke-dashoffset: 0; stroke-linejoin: miter; stroke-miterlimit: 4; fill: rgb(255,255,255); fill-rule: nonzero; opacity: 1; visibility: hidden;" vector-effect="non-scaling-stroke"  x="-540" y="-540" rx="0" ry="0" width="1080" height="1080" />
</g>
<g transform="matrix(1 0 0 1 540 540)" id="7f189dc0-7545-4a8f-924f-68aae928fff0"  >
</g>
<g transform="matrix(2.11 0 0 2.11 540 540)"  >
<g style=""   >
		<g transform="matrix(1 0 0 1 -222.61 0)" id="SVGRepo_iconCarrier"  >
<path style="stroke: none; stroke-width: 1; stroke-dasharray: none; stroke-linecap: butt; stroke-dashoffset: 0; stroke-linejoin: miter; stroke-miterlimit: 4; fill: rgb(255,225,77); fill-rule: nonzero; opacity: 1;" vector-effect="non-scaling-stroke"  transform=" translate(-33.39, -256)" d="M 50.087 272.696 L 16.696 272.696 C 7.473 272.696 0 265.223 0 256 C 0 246.777 7.473 239.304 16.696 239.304 L 50.087 239.304 C 59.31 239.304 66.783 246.77700000000002 66.783 256 C 66.783 265.22299999999996 59.31 272.696 50.087 272.696 z" stroke-linecap="round" />
</g>
		<g transform="matrix(1 0 0 1 222.61 0)" id="SVGRepo_iconCarrier"  >
<path style="stroke: none; stroke-width: 1; stroke-dasharray: none; stroke-linecap: butt; stroke-dashoffset: 0; stroke-linejoin: miter; stroke-miterlimit: 4; fill: rgb(255,204,51); fill-rule: nonzero; opacity: 1;" vector-effect="non-scaling-stroke"  transform=" translate(-478.61, -256)" d="M 495.304 272.696 L 461.91299999999995 272.696 C 452.68999999999994 272.696 445.2169999999999 265.223 445.2169999999999 256 C 445.2169999999999 246.777 452.68999999999994 239.304 461.91299999999995 239.304 L 495.304 239.304 C 504.52099999999996 239.304 512 246.77700000000002 512 256 C 512 265.22299999999996 504.521 272.696 495.304 272.696 z" stroke-linecap="round" />
</g>
		<g transform="matrix(1 0 0 1 -192.79 111.31)" id="SVGRepo_iconCarrier"  >
<path style="stroke: none; stroke-width: 1; stroke-dasharray: none; stroke-linecap: butt; stroke-dashoffset: 0; stroke-linejoin: miter; stroke-miterlimit: 4; fill: rgb(255,225,77); fill-rule: nonzero; opacity: 1;" vector-effect="non-scaling-stroke"  transform=" translate(-63.21, -367.31)" d="M 48.771 392.353 C 42.999 392.353 37.39 389.359 34.298 384 C 29.683 376.016 32.423 365.804 40.406 361.196 L 69.325 344.5 C 77.32000000000001 339.885 87.527 342.62 92.129 350.608 C 96.744 358.592 94.004 368.80400000000003 86.021 373.412 L 57.103 390.108 C 54.472 391.63 51.603 392.353 48.771 392.353 z" stroke-linecap="round" />
</g>
		<g transform="matrix(1 0 0 1 192.78 -111.3)" id="SVGRepo_iconCarrier"  >
<path style="stroke: none; stroke-width: 1; stroke-dasharray: none; stroke-linecap: butt; stroke-dashoffset: 0; stroke-linejoin: miter; stroke-miterlimit: 4; fill: rgb(255,204,51); fill-rule: nonzero; opacity: 1;" vector-effect="non-scaling-stroke"  transform=" translate(-448.78, -144.7)" d="M 434.342 169.745 C 428.57 169.745 422.961 166.751 419.86899999999997 161.392 C 415.25399999999996 153.408 417.99399999999997 143.196 425.977 138.588 L 454.895 121.892 C 462.89599999999996 117.273 473.097 120.02199999999999 477.69899999999996 128 C 482.31399999999996 135.984 479.57399999999996 146.196 471.59099999999995 150.804 L 442.673 167.5 C 440.044 169.021 437.173 169.745 434.342 169.745 z" stroke-linecap="round" />
</g>
		<g transform="matrix(1 0 0 1 -111.3 192.79)" id="SVGRepo_iconCarrier"  >
<path style="stroke: none; stroke-width: 1; stroke-dasharray: none; stroke-linecap: butt; stroke-dashoffset: 0; stroke-linejoin: miter; stroke-miterlimit: 4; fill: rgb(255,225,77); fill-rule: nonzero; opacity: 1;" vector-effect="non-scaling-stroke"  transform=" translate(-144.7, -448.79)" d="M 136.331 479.945 C 133.499 479.945 130.63 479.223 127.99999999999999 477.7 C 120.01599999999999 473.091 117.27699999999999 462.88 121.89199999999998 454.896 L 138.588 425.978 C 143.197 418.005 153.414 415.249 161.392 419.87 C 169.376 424.479 172.115 434.69 167.5 442.674 L 150.804 471.592 C 147.712 476.946 142.103 479.945 136.331 479.945 z" stroke-linecap="round" />
</g>
		<g transform="matrix(1 0 0 1 111.3 -192.78)" id="SVGRepo_iconCarrier"  >
<path style="stroke: none; stroke-width: 1; stroke-dasharray: none; stroke-linecap: butt; stroke-dashoffset: 0; stroke-linejoin: miter; stroke-miterlimit: 4; fill: rgb(255,204,51); fill-rule: nonzero; opacity: 1;" vector-effect="non-scaling-stroke"  transform=" translate(-367.3, -63.22)" d="M 358.94 94.375 C 356.108 94.375 353.239 93.653 350.609 92.13 C 342.625 87.521 339.88599999999997 77.31 344.501 69.326 L 361.197 40.407999999999994 C 365.811 32.435 376.022 29.69 384 34.3 C 391.984 38.909 394.723 49.12 390.108 57.104 L 373.412 86.02199999999999 C 370.321 91.375 364.712 94.375 358.94 94.375 z" stroke-linecap="round" />
</g>
		<g transform="matrix(1 0 0 1 111.3 192.79)" id="SVGRepo_iconCarrier"  >
<path style="stroke: none; stroke-width: 1; stroke-dasharray: none; stroke-linecap: butt; stroke-dashoffset: 0; stroke-linejoin: miter; stroke-miterlimit: 4; fill: rgb(255,204,51); fill-rule: nonzero; opacity: 1;" vector-effect="non-scaling-stroke"  transform=" translate(-367.3, -448.79)" d="M 375.669 479.945 C 369.897 479.945 364.288 476.95099999999996 361.19599999999997 471.592 L 344.5 442.674 C 339.885 434.69 342.625 424.47799999999995 350.608 419.87 C 358.619 415.251 368.81 417.99 373.412 425.978 L 390.108 454.896 C 394.723 462.88 391.983 473.09200000000004 384 477.7 C 381.37 479.223 378.5 479.945 375.669 479.945 z" stroke-linecap="round" />
</g>
		<g transform="matrix(1 0 0 1 -111.3 -192.78)" id="SVGRepo_iconCarrier"  >
<path style="stroke: none; stroke-width: 1; stroke-dasharray: none; stroke-linecap: butt; stroke-dashoffset: 0; stroke-linejoin: miter; stroke-miterlimit: 4; fill: rgb(255,225,77); fill-rule: nonzero; opacity: 1;" vector-effect="non-scaling-stroke"  transform=" translate(-144.7, -63.22)" d="M 153.06 94.375 C 147.288 94.375 141.679 91.381 138.587 86.022 L 121.89099999999999 57.104000000000006 C 117.277 49.12 120.016 38.908 128 34.3 C 136.005 29.690999999999995 146.202 32.425 150.804 40.407999999999994 L 167.5 69.326 C 172.115 77.30999999999999 169.375 87.52199999999999 161.392 92.13 C 158.761 93.653 155.892 94.375 153.06 94.375 z" stroke-linecap="round" />
</g>
		<g transform="matrix(1 0 0 1 192.79 111.31)" id="SVGRepo_iconCarrier"  >
<path style="stroke: none; stroke-width: 1; stroke-dasharray: none; stroke-linecap: butt; stroke-dashoffset: 0; stroke-linejoin: miter; stroke-miterlimit: 4; fill: rgb(255,204,51); fill-rule: nonzero; opacity: 1;" vector-effect="non-scaling-stroke"  transform=" translate(-448.79, -367.31)" d="M 463.229 392.353 C 460.397 392.353 457.52799999999996 391.63100000000003 454.89799999999997 390.108 L 425.97999999999996 373.412 C 417.996 368.803 415.25699999999995 358.592 419.87199999999996 350.608 C 424.48099999999994 342.635 434.69199999999995 339.885 442.67599999999993 344.5 L 471.59399999999994 361.196 C 479.5779999999999 365.805 482.31699999999995 376.016 477.70199999999994 384 C 474.608 389.354 469 392.353 463.229 392.353 z" stroke-linecap="round" />
</g>
		<g transform="matrix(1 0 0 1 -192.78 -111.3)" id="SVGRepo_iconCarrier"  >
<path style="stroke: none; stroke-width: 1; stroke-dasharray: none; stroke-linecap: butt; stroke-dashoffset: 0; stroke-linejoin: miter; stroke-miterlimit: 4; fill: rgb(255,225,77); fill-rule: nonzero; opacity: 1;" vector-effect="non-scaling-stroke"  transform=" translate(-63.22, -144.7)" d="M 77.658 169.745 C 74.82600000000001 169.745 71.95700000000001 169.023 69.327 167.5 L 40.409 150.804 C 32.425 146.195 29.686 135.984 34.301 128 C 38.916000000000004 120.022 49.117000000000004 117.271 57.105000000000004 121.892 L 86.023 138.588 C 94.00699999999999 143.197 96.746 153.408 92.131 161.392 C 89.038 166.745 83.429 169.745 77.658 169.745 z" stroke-linecap="round" />
</g>
		<g transform="matrix(1 0 0 1 0 0)" id="SVGRepo_iconCarrier"  >
<path style="stroke: none; stroke-width: 1; stroke-dasharray: none; stroke-linecap: butt; stroke-dashoffset: 0; stroke-linejoin: miter; stroke-miterlimit: 4; fill: rgb(255,192,51); fill-rule: nonzero; opacity: 1;" vector-effect="non-scaling-stroke"  transform=" translate(-256, -256)" d="M 256 411.826 C 170.076 411.826 100.174 341.92400000000004 100.174 256 C 100.174 170.07599999999996 170.076 100.174 256 100.174 C 341.924 100.174 411.826 170.076 411.826 256 C 411.826 341.924 341.924 411.826 256 411.826 z" stroke-linecap="round" />
</g>
		<g transform="matrix(1 0 0 1 77.91 0)" id="SVGRepo_iconCarrier"  >
<path style="stroke: none; stroke-width: 1; stroke-dasharray: none; stroke-linecap: butt; stroke-dashoffset: 0; stroke-linejoin: miter; stroke-miterlimit: 4; fill: rgb(249,169,38); fill-rule: nonzero; opacity: 1;" vector-effect="non-scaling-stroke"  transform=" translate(-333.91, -256)" d="M 411.826 256 C 411.826 170.076 341.92400000000004 100.174 256 100.174 L 256 411.826 C 341.924 411.826 411.826 341.924 411.826 256 z" stroke-linecap="round" />
</g>
		<g transform="matrix(1 0 0 1 0 -222.61)" id="SVGRepo_iconCarrier"  >
<path style="stroke: none; stroke-width: 1; stroke-dasharray: none; stroke-linecap: butt; stroke-dashoffset: 0; stroke-linejoin: miter; stroke-miterlimit: 4; fill: rgb(255,225,77); fill-rule: nonzero; opacity: 1;" vector-effect="non-scaling-stroke"  transform=" translate(-256, -33.39)" d="M 256 66.783 C 246.777 66.783 239.304 59.31 239.304 50.087 L 239.304 16.696 C 239.304 7.473 246.777 0 256 0 C 265.223 0 272.696 7.473 272.696 16.696 L 272.696 50.087 C 272.696 59.31 265.223 66.783 256 66.783 z" stroke-linecap="round" />
</g>
		<g transform="matrix(1 0 0 1 8.35 -222.61)" id="SVGRepo_iconCarrier"  >
<path style="stroke: none; stroke-width: 1; stroke-dasharray: none; stroke-linecap: butt; stroke-dashoffset: 0; stroke-linejoin: miter; stroke-miterlimit: 4; fill: rgb(255,204,51); fill-rule: nonzero; opacity: 1;" vector-effect="non-scaling-stroke"  transform=" translate(-264.35, -33.39)" d="M 272.696 50.087 L 272.696 16.696 C 272.696 7.473 265.223 0 256 0 L 256 66.783 C 265.223 66.783 272.696 59.31 272.696 50.087 z" stroke-linecap="round" />
</g>
		<g transform="matrix(1 0 0 1 0 222.61)" id="SVGRepo_iconCarrier"  >
<path style="stroke: none; stroke-width: 1; stroke-dasharray: none; stroke-linecap: butt; stroke-dashoffset: 0; stroke-linejoin: miter; stroke-miterlimit: 4; fill: rgb(255,225,77); fill-rule: nonzero; opacity: 1;" vector-effect="non-scaling-stroke"  transform=" translate(-256, -478.61)" d="M 256 512 C 246.777 512 239.304 504.527 239.304 495.304 L 239.304 461.91299999999995 C 239.304 452.68999999999994 246.77700000000002 445.2169999999999 256 445.2169999999999 C 265.22299999999996 445.2169999999999 272.696 452.68999999999994 272.696 461.91299999999995 L 272.696 495.304 C 272.696 504.527 265.223 512 256 512 z" stroke-linecap="round" />
</g>
		<g transform="matrix(1 0 0 1 8.35 222.61)" id="SVGRepo_iconCarrier"  >
<path style="stroke: none; stroke-width: 1; stroke-dasharray: none; stroke-linecap: butt; stroke-dashoffset: 0; stroke-linejoin: miter; stroke-miterlimit: 4; fill: rgb(255,204,51); fill-rule: nonzero; opacity: 1;" vector-effect="non-scaling-stroke"  transform=" translate(-264.35, -478.61)" d="M 272.696 495.304 L 272.696 461.91299999999995 C 272.696 452.68999999999994 265.223 445.2169999999999 256 445.2169999999999 L 256 512 C 265.223 512 272.696 504.527 272.696 495.304 z" stroke-linecap="round" />
</g>
</g>
</g>
</svg>